<?xml version="1.0" standalone="no"?>
<!DOCTYPE svg PUBLIC "-//W3C//DTD SVG 1.1//EN" "http://www.w3.org/Graphics/SVG/1.1/DTD/svg11.dtd" >
<svg xmlns="http://www.w3.org/2000/svg">
<metadata>
This is a custom SVG font generated by IcoMoon.
<iconset grid="25" href="http://twenty-em.com/" name="t-em" id="t-em"></iconset><author href="http://blog.rogertm.com/" name="RogerTM"></author><license href="http://www.gnu.org/licenses/gpl.html" name="GPL"></license>
</metadata>
<defs>
<font id="t-em" horiz-adv-x="800" >
<font-face units-per-em="800" ascent="768" descent="-32" />
<missing-glyph horiz-adv-x="800" />
<glyph unicode="&#xe000;" d="M 449.16,318.84c-63.32-63.36-136.68-123.92-165.68-94.88c-41.52,41.48-67.08,77.64-158.60,4.12s-21.24-122.56, 19.00-162.80
		c 46.40-46.36, 219.36-2.44, 390.36,168.52c 170.92,170.96, 214.92,343.96, 168.48,390.36c-40.20,40.24-89.20,110.48-162.76,19.00
		s-37.40-117.08, 4.12-158.60C 573.00,455.52, 512.48,382.20, 449.16,318.84z"  />
<glyph unicode="&#xe001;" d="M 555.08,768.00L 244.92,768.00 C 200.00,768.00, 163.28,731.28, 163.28,686.36l0.00-636.72 C 163.28,4.76, 200.00-32.00, 244.92-32.00l 310.16,0.00 c 44.92,0.00, 81.64,36.76, 81.64,81.64
		L 636.72,686.36 C 636.72,731.28, 600.00,768.00, 555.08,768.00z M 400.00,0.64c-31.52,0.00-57.12,18.28-57.12,40.84s 25.60,40.84, 57.12,40.84
		c 31.56,0.00, 57.12-18.28, 57.12-40.84S 431.56,0.64, 400.00,0.64z M 571.40,123.12L 228.56,123.12 L 228.56,661.88 l 342.84,0.00 L 571.40,123.12 z"  />
<glyph unicode="&#xe002;" d="M 616.08,191.88l-105.04,301.44c-28.92,82.96-118.68,128.80-203.72,106.16L 228.28,752.84C 221.12,766.72, 204.36,772.04, 190.80,764.72
		C 177.24,757.36, 172.04,740.16, 179.20,726.28l 77.16-149.72c-61.48-40.80-93.44-118.12-73.20-190.92l 85.60-307.84
		c 24.08-86.52, 123.20-130.60, 222.84-100.12C 589.96,12.20, 645.64,107.16, 616.08,191.88z M 355.96,411.08C 326.80,401.52, 295.52,417.96, 286.16,447.92
		C 276.80,477.84, 292.88,509.88, 322.08,519.44c 29.20,9.60, 60.48-6.88, 69.84-36.80S 385.20,420.68, 355.96,411.08z"  />
<glyph unicode="&#xe003;" d="M 340.00,728.00L 304.04,728.00 C 295.20,728.00, 288.00,720.80, 288.00,712.00l0.00-152.00 L 146.56,560.00 c-6.60,0.00-14.80-1.52-22.64-3.92
		C 116.00,553.64, 108.44,550.28, 103.04,546.60l-95.00-65.20C 2.68,477.72,0.00,472.88,0.00,468.00s 2.68-9.72, 8.04-13.40l 95.00-65.20
		C 108.44,385.72, 116.00,382.36, 123.92,379.92C 131.76,377.52, 139.96,376.00, 146.56,376.00L 288.00,376.00 l0.00-352.00 c0.00-8.84, 7.20-16.00, 16.00-16.00L 340.00,8.00 
		c 8.84,0.00, 16.00,7.20, 16.00,16.00L 356.00,712.00 C 356.00,720.80, 348.84,728.00, 340.00,728.00z M 791.96,561.36l-95.00,65.20c-5.36,3.68-12.92,7.04-20.84,9.48
		C 668.24,638.48, 660.04,640.00, 653.44,640.00L 380.00,640.00 l 32.04-184.00l 241.40,0.00 c 6.60,0.00, 14.80,1.52, 22.68,3.92s 15.48,5.80, 20.84,9.44l 95.00,65.20
		C 797.36,538.28, 800.00,543.12, 800.00,548.00S 797.36,557.72, 791.96,561.36z"  />
<glyph unicode="&#xe004;" d="M 63.76,556.56c 19.52-10.52, 289.96-155.76, 300.04-161.16C 373.84,390.00, 386.88,387.40, 400.00,387.40c 13.16,0.00, 26.20,2.60, 36.24,8.04
		c 10.08,5.40, 280.48,150.64, 300.00,161.16C 755.80,567.08, 774.28,600.00, 738.40,600.00L 61.64,600.00 C 25.76,600.00, 44.20,567.08, 63.76,556.56z M 744.52,476.56
		c-22.20-11.60-294.68-154.04-308.28-161.16S 413.16,307.36, 400.00,307.36c-13.12,0.00-22.60,0.92-36.20,8.04S 77.68,465.00, 55.52,476.56
		C 39.88,484.72, 40.00,475.16, 40.00,467.80c0.00-7.36,0.00-293.40,0.00-293.40C 40.00,157.60, 62.36,136.00, 79.68,136.00l 640.68,0.00 c 17.36,0.00, 39.64,21.60, 39.64,38.36
		c0.00,0.00,0.00,286.04,0.00,293.40C 760.00,475.16, 760.16,484.72, 744.52,476.56z"  />
<glyph unicode="&#xe005;" d="M 747.76,662.60C 734.04,657.76, 54.92,418.48, 41.56,413.76c-11.36-4.00-13.92-13.80-0.40-19.16
	c 16.04-6.44, 151.84-60.84, 151.84-60.84L 192.96,333.76 l 90.04-36.08c0.00,0.00, 433.48,318.36, 439.36,322.64c 5.88,4.32, 12.72-3.80, 8.44-8.44
	c-4.28-4.68-314.84-340.56-314.84-340.56c-0.04,0.00-0.04,0.00-0.04,0.00l-18.08-20.16l 23.96-12.88l0.00,0.00c0.00,0.00, 186.00-100.12, 199.24-107.28
	c 11.60-6.24, 26.72-1.04, 30.08,13.40c 3.96,17.04, 113.80,490.48, 116.24,500.96C 770.56,659.08, 761.52,667.44, 747.76,662.60z M 282.20,81.52
	c0.00-9.88, 5.56-12.60, 13.24-5.64c 10.00,9.12, 113.96,102.40, 113.96,102.40l-127.20,65.84L 282.20,81.52 z"  />
<glyph unicode="&#xe006;" d="M 662.44,630.48c-57.68,57.72-101.00,49.08-101.00,49.08L 359.32,477.44L 128.40,246.52L 88.00,56.00l 190.52,40.40l 230.92,230.92l 202.08,202.08
		C 711.52,529.40, 720.20,572.72, 662.44,630.48z M 267.16,119.32l-64.92-14.00c-6.28,11.72-13.84,23.44-27.64,37.28
		c-13.80,13.80-25.56,21.32-37.28,27.60l 14.04,64.96l 18.76,18.76c0.00,0.00, 35.36-0.72, 75.24-40.60c 39.92-39.92, 40.64-75.28, 40.64-75.28
		L 267.16,119.32z"  />
<glyph unicode="&#xe007;" d="M 170.16-22.48c 12.24,40.04, 30.80,96.44, 55.64,178.04c 108.24,17.48, 153.04-13.96, 221.80,111.36
	c-55.80-17.44-123.08,32.36-119.44,53.92c 3.60,21.60, 156.52-15.56, 256.60,129.52c-126.16-28.36-166.56,34.12-150.28,43.56
	c 37.56,21.80, 149.08,9.04, 208.52,68.12c 30.64,30.40, 44.96,104.36, 32.52,130.76c-15.00,31.84-106.28,79.36-156.60,74.92
	c-50.32-4.48-129.24-195.56-152.64-194.04S 338.20,659.24, 379.04,737.40c-43.08-19.44-122.00-79.96-146.76-131.68
	c-46.12-96.24, 4.32-316.92-11.84-324.80c-16.20-7.84-70.64,101.32-86.88,150.80c-22.20-75.84-22.72-151.84, 42.16-252.80
	c-24.48-66.24-37.84-142.48-39.88-181.24C 134.88-33.36, 164.76-40.00, 170.16-22.48z"  />
<glyph unicode="&#xe008;" d="M 198.44-32.00c-53.44,0.00-103.48,22.64-139.64,58.84c-70.00,70.00-89.56,192.24, 8.60,290.40C 124.96,374.72, 355.36,605.12, 470.36,720.12
		c 40.84,40.84, 92.76,56.60, 142.52,43.24c 48.84-13.04, 88.92-53.08, 102.00-101.96c 13.32-49.76-2.48-101.72-43.28-142.52l-385.28-385.32
		c-22.00-22.00-46.84-35.04-71.84-37.64c-24.72-2.60-48.32,5.36-64.88,21.88c-30.00,29.96-34.24,86.36, 15.60,136.16l 270.60,270.68
		c 11.12,11.08, 29.16,11.08, 40.28,0.00c 11.12-11.12, 11.12-29.16,0.00-40.28l-270.64-270.64c-23.40-23.40-25.56-45.76-15.60-55.72
		c 4.36-4.32, 11.00-6.32, 18.64-5.52c 11.72,1.24, 25.08,8.84, 37.56,21.32l 385.28,385.28c 26.44,26.44, 36.56,57.52, 28.52,87.56
		c-7.92,29.56-32.16,53.80-61.72,61.72c-30.04,8.04-61.12-2.12-87.56-28.52C 395.60,564.84, 165.20,334.44, 107.68,276.96
		c-75.04-75.04-57.08-161.40-8.64-209.88c 48.48-48.44, 134.84-66.44, 209.92,8.64L 711.88,478.60c 11.08,11.12, 29.16,11.12, 40.24,0.00
		c 11.12-11.12, 11.12-29.16,0.00-40.24L 349.20,35.44C 301.72-12.08, 248.60-32.00, 198.44-32.00z"  />
<glyph unicode="&#xe009;" d="M 773.56,386.28c-15.72,16.68-91.36,90.88-125.96,124.76c-10.64,10.36-25.84,16.96-41.72,16.96c-15.84,0.00-205.84,0.00-205.84,0.00
	s-190.00,0.00-205.88,0.00S 163.04,521.36, 152.44,511.00c-34.60-33.88-110.32-108.08-126.00-124.76c-19.56-20.80-30.28-37.40-25.16-57.96l 22.44-122.96
	c 5.08-20.56, 27.60-37.40, 50.04-37.40l 652.48,0.00 c 22.44,0.00, 44.96,16.84, 50.04,37.40l 22.48,122.96C 803.84,348.84, 793.12,365.48, 773.56,386.28
	z M 561.92,359.64c-4.08,0.00-7.72-2.08-9.56-5.32l-32.68-81.44L 280.36,272.88 l-32.68,81.44c-1.80,3.24-5.52,5.32-9.56,5.32L 96.32,359.64 
	l 81.64,92.36l 444.16,0.00 l 81.60-92.36L 561.92,359.64 z"  />
<glyph unicode="&#xe00a;" d="M 760.00,96.00c0.00,0.00-80.00,389.32-431.00,389.32L 329.00,640.00 L 40.00,381.80l 289.00-267.64l0.00,174.32 C 519.52,288.48, 660.68,271.60, 760.00,96.00z"  />
<glyph unicode="&#xe00b;" d="M 289.00,532.80L 289.00,640.00 L0.00,381.80l 289.00-267.64l0.00,111.16 L 120.00,381.80L 289.00,532.80z M 489.00,485.36L 489.00,640.00 L 200.00,381.80l 289.00-267.64l0.00,174.32 
		c 131.72,0.00, 211.68-16.88, 311.00-192.48C 800.00,96.00, 785.32,485.36, 489.00,485.36z"  />
<glyph unicode="&#xe00c;" d="M 600.00,248.00c-27.52,0.00-52.72-9.32-72.96-24.88l-208.76,125.24C 319.28,354.76, 320.00,361.32, 320.00,368.00c0.00,6.72-0.72,13.24-1.72,19.64
		l 208.76,125.24C 547.28,497.32, 572.48,488.00, 600.00,488.00c 66.24,0.00, 120.00,53.72, 120.00,120.00s-53.76,120.00-120.00,120.00s-120.00-53.72-120.00-120.00c0.00-6.68, 0.72-13.24, 1.76-19.64
		L 273.00,463.08C 252.76,478.68, 227.52,488.00, 200.00,488.00c-66.28,0.00-120.00-53.72-120.00-120.00c0.00-66.24, 53.72-120.00, 120.00-120.00c 27.52,0.00, 52.76,9.32, 73.00,24.88l 208.76-125.24
		C 480.72,141.24, 480.00,134.72, 480.00,128.00c0.00-66.24, 53.76-120.00, 120.00-120.00s 120.00,53.76, 120.00,120.00S 666.24,248.00, 600.00,248.00z"  />
<glyph unicode="&#xe00d;" d="M 400.00,712.00c-189.96,0.00-344.00-154.04-344.00-344.00c0.00-190.00, 154.04-344.00, 344.00-344.00c 190.00,0.00, 344.00,154.00, 344.00,344.00C 744.00,557.96, 590.00,712.00, 400.00,712.00z
		 M 428.00,89.40L 428.00,244.00 L 372.00,244.00 l0.00-154.60 c-132.28,13.12-237.44,118.32-250.60,250.60L 276.00,340.00 L 276.00,396.00 L 121.40,396.00 C 134.56,528.28, 239.72,633.48, 372.00,646.60L 372.00,492.00 l 56.00,0.00 
		L 428.00,646.60 c 132.32-13.12, 237.48-118.32, 250.60-250.60L 524.00,396.00 l0.00-56.00 l 154.60,0.00 C 665.48,207.72, 560.32,102.52, 428.00,89.40z"  />
<glyph unicode="&#xe00e;" d="M 788.76,756.80c-27.20,27.24-53.20,1.48-141.40-40.88C 411.36,602.44,0.00,371.96,0.00,371.96l 353.40-50.52L 403.92-32.00
		c0.00,0.00, 230.52,411.36, 343.96,647.36C 790.32,703.60, 816.00,729.52, 788.76,756.80z M 704.00,665.84l-256.72-476.68l-26.04,216.64L 704.00,665.84z"  />
<glyph unicode="&#xe00f;" d="M 394.88,751.96C 182.80,749.12, 13.20,574.92, 16.04,362.88c 2.84-212.08, 177.04-381.68, 389.12-378.88
		c 212.04,2.88, 381.68,177.04, 378.84,389.12C 781.08,585.20, 606.88,754.80, 394.88,751.96z M 404.04,64.88c-167.40-2.28-304.92,131.64-307.20,299.08
		C 94.64,531.36, 228.52,668.88, 395.96,671.12c 167.40,2.24, 304.92-131.64, 307.16-299.08S 571.48,67.16, 404.04,64.88z M 218.12,187.84
		c0.00,0.00, 182.76,25.08, 260.72,103.04c 77.96,77.96, 103.04,260.72, 103.04,260.72S 399.16,526.48, 321.20,448.56C 243.24,370.56, 218.12,187.84, 218.12,187.84z
		 M 360.60,409.12C 393.36,441.92, 456.00,465.16, 509.76,479.60c-14.44-53.64-37.80-116.76-70.36-149.28c-21.76-21.76-57.04-21.76-78.80,0.00
		C 338.80,352.08, 338.80,387.36, 360.60,409.12z"  />
<glyph unicode="&#xe010;" d="M 787.32,567.04l-186.96,117.08c-8.28,5.20-18.64,5.20-26.92,0.00L 400.00,575.48L 226.56,684.08c-8.28,5.20-18.64,5.20-26.92,0.00
		L 12.68,567.04C 4.84,562.12,0.00,553.20,0.00,543.64l0.00-468.28 c0.00-9.84, 5.04-18.96, 13.28-23.80s 18.28-4.72, 26.36,0.36l 173.44,108.64l 173.44-108.64
		c 8.28-5.20, 18.64-5.20, 26.96,0.00l 173.44,108.64l 173.44-108.64C 764.48,49.32, 769.16,48.00, 773.84,48.00c 4.44,0.00, 8.88,1.20, 12.88,3.56
		C 794.92,56.40, 800.00,65.52, 800.00,75.36L 800.00,543.64 C 800.00,553.20, 795.16,562.12, 787.32,567.04z M 186.92,207.88L 52.32,123.60L 52.32,528.16 l 134.60,84.28L 186.92,207.88 z
		 M 373.84,123.60l-134.60,84.28L 239.24,612.44 l 134.60-84.28L 373.84,123.60 z M 560.76,207.88l-134.56-84.28L 426.20,528.16 l 134.56,84.28L 560.76,207.88 z M 747.64,123.60
		l-134.56,84.28L 613.08,612.44 l 134.56-84.28L 747.64,123.60 z"  />
<glyph unicode="&#xe011;" d="M 400.00,688.00C 289.52,688.00, 200.00,598.44, 200.00,488.00c0.00-190.96, 200.00-440.00, 200.00-440.00s 200.00,249.04, 200.00,440.00C 600.00,598.44, 510.48,688.00, 400.00,688.00z M 400.00,377.60c-59.64,0.00-108.00,48.36-108.00,108.00
		s 48.36,108.00, 108.00,108.00s 108.00-48.36, 108.00-108.00S 459.64,377.60, 400.00,377.60z"  />
<glyph unicode="&#xe012;" d="M 600.00,136.00L 80.00,136.00 l0.00,360.00 l 103.80,0.00 c0.00,0.00, 27.56,35.84, 86.80,80.00L 40.00,576.00 c-22.08,0.00-40.00-17.92-40.00-40.00l0.00-440.00 c0.00-22.12, 17.92-40.00, 40.00-40.00l 600.00,0.00 c 22.12,0.00, 40.00,17.88, 40.00,40.00l0.00,149.84 
		l-80.00-65.80L 600.00,136.00 z M 534.48,414.00l0.00-142.00 L 800.00,480.04L 534.48,680.00l0.00-125.20 C 212.00,554.76, 212.00,236.00, 212.00,236.00C 303.28,385.92, 359.44,414.00, 534.48,414.00z"  />
<glyph unicode="&#xe013;" d="M 720.00,688.00L 80.00,688.00 C 36.00,688.00,0.00,652.00,0.00,608.00l0.00-480.00 c0.00-44.00, 36.00-80.00, 80.00-80.00l 640.00,0.00 c 44.04,0.00, 80.00,36.00, 80.00,80.00L 800.00,608.00 C 800.00,652.00, 764.04,688.00, 720.00,688.00z M 720.00,128.00L 80.00,128.00 L 80.00,608.00 l 640.00,0.00 L 720.00,128.00 z M 360.00,284.00L 160.00,284.00 
		L 160.00,212.00 l 200.00,0.00 L 360.00,284.00 z M 360.00,404.00L 160.00,404.00 l0.00-72.00 l 200.00,0.00 L 360.00,404.00 z M 360.00,524.00L 160.00,524.00 l0.00-72.00 l 200.00,0.00 L 360.00,524.00 z M 636.00,268.00c0.00,0.00-68.00,17.76-68.00,52.72c0.00,33.28, 44.04,47.28, 44.04,115.28
		c0.00,55.20-16.80,88.00-72.04,88.00s-72.00-32.76-72.00-88.00c0.00-68.00, 44.00-82.00, 44.00-115.28c0.00-34.96-67.96-52.72-67.96-52.72C 440.00,268.00, 440.00,212.00, 440.00,212.00
		l 200.00,0.00 C 640.00,212.00, 640.00,268.00, 636.00,268.00z"  />
<glyph unicode="&#xe014;" d="M 495.08,190.08C 395.44,226.00, 363.60,256.32, 363.60,321.24c0.00,38.96, 30.44,26.24, 43.80,97.60c 5.56,29.60, 32.44,0.48, 37.52,68.04
		c0.00,26.92-14.64,33.64-14.64,33.64s 7.48,39.88, 10.36,70.52C 444.24,629.28, 418.32,728.00, 280.00,728.00S 115.76,629.28, 119.36,591.04
		c 2.92-30.68, 10.40-70.52, 10.40-70.52S 115.08,513.84, 115.08,486.88c 5.16-67.56, 32.04-38.44, 37.52-68.04
		c 13.40-71.36, 43.84-58.64, 43.84-97.60c0.00-64.92-31.88-95.24-131.52-131.16c-12.00-4.28-40.60-11.00-64.92-21.52L0.00,8.00 l 640.00,0.00 
		c0.00,0.00,0.00,59.16,0.00,84.20S 595.08,154.04, 495.08,190.08z M 680.00,408.00L 680.00,528.00 l-80.00,0.00 l0.00-120.00 l-120.00,0.00 l0.00-80.00 l 120.00,0.00 l0.00-120.00 l 80.00,0.00 l0.00,120.00 l 120.00,0.00 L 800.00,408.00 L 680.00,408.00 z"  />
<glyph unicode="&#xe015;" d="M 800.00,16.00c0.00,0.00-1.56,151.48-10.84,167.16c-13.80,23.40-45.84,39.44-105.36,64.32c-59.32,24.80-78.32,45.76-78.32,90.52
		c0.00,26.92, 18.12,18.12, 26.08,67.36c 3.28,20.44, 19.28,0.36, 22.36,46.96c0.00,18.60-8.72,23.24-8.72,23.24s 4.40,27.52, 6.16,48.68
		c 2.16,26.40-13.32,94.52-95.68,94.52s-97.76-68.16-95.64-94.52c 1.72-21.16, 6.12-48.68, 6.12-48.68s-8.72-4.64-8.72-23.24
		c 3.08-46.64, 19.08-26.56, 22.40-46.96c 7.92-49.24, 26.04-40.44, 26.04-67.36c0.00-30.44-8.80-49.88-33.08-66.96
		c 129.60-64.88, 147.00-78.12, 147.00-136.12L 619.80,16.00 L 800.00,16.00 z M 408.96,225.00c-79.16,33.04-104.40,60.96-104.40,120.68c0.00,35.84, 24.16,24.16, 34.76,89.84
		c 4.36,27.24, 25.76,0.44, 29.80,62.60c0.00,24.80-11.64,30.96-11.64,30.96s 5.92,36.68, 8.24,64.92C 368.60,629.12, 347.96,720.00, 238.16,720.00
		c-109.80,0.00-130.40-90.84-127.52-126.00c 2.32-28.24, 8.20-64.92, 8.20-64.92S 107.24,522.92, 107.24,498.12
		c 4.12-62.20, 25.44-35.40, 29.84-62.60c 10.60-65.68, 34.76-53.96, 34.76-89.84c0.00-59.72-25.32-87.64-104.40-120.68
		C 43.32,214.92,0.00,199.28,0.00,161.76L0.00,16.00 l 555.76,0.00 c0.00,0.00,0.00,86.20,0.00,109.24C 555.76,159.52, 488.28,191.80, 408.96,225.00z"  />
<glyph unicode="&#xe016;" d="M 592.80,190.08c-98.60,35.92-130.12,66.24-130.12,131.16c0.00,38.96, 30.12,26.24, 43.32,97.60c 5.48,29.60, 32.08,0.48, 37.20,68.04
		c0.00,26.92-14.52,33.64-14.52,33.64s 7.40,39.88, 10.28,70.52C 542.48,629.28, 516.88,728.00, 380.00,728.00C 243.16,728.00, 217.48,629.28, 221.08,591.04
		C 223.96,560.40, 231.36,520.52, 231.36,520.52S 216.80,513.84, 216.80,486.88c 5.08-67.56, 31.68-38.44, 37.16-68.04
		c 13.24-71.36, 43.36-58.64, 43.36-97.60c0.00-64.92-31.52-95.24-130.12-131.16c-98.96-36.00-163.20-72.76-163.20-97.84c0.00-25.04,0.00-84.20,0.00-84.20
		l 376.00,0.00 l 376.00,0.00 c0.00,0.00,0.00,59.16,0.00,84.20C 756.00,117.28, 691.72,154.04, 592.80,190.08z"  />
<glyph unicode="&#xe017;" d="M 471.00,288.48l0.00-174.28 L 760.00,381.80L 471.00,640.00l0.00-154.64 C 120.00,485.36, 40.00,96.00, 40.00,96.00C 139.32,271.60, 280.48,288.48, 471.00,288.48z"  />
<glyph unicode="&#xe018;" d="M 272.00,368.00c0.00-70.68, 57.32-128.00, 128.00-128.00s 128.00,57.36, 128.00,128.00c0.00,70.68-57.32,128.00-128.00,128.00
	S 272.00,438.68, 272.00,368.00z M 181.16,416.00C 203.12,516.64, 292.76,592.00, 400.00,592.00c 61.88,0.00, 117.84-25.08, 158.36-65.60c 18.76-18.76, 49.16-18.76, 67.92,0.00
	c 18.72,18.76, 18.72,49.16,0.00,67.88C 568.36,652.16, 488.36,688.00, 400.00,688.00C 256.72,688.00, 135.44,593.84, 94.68,464.00L0.00,464.00 L0.00,368.00 l 128.00,0.00 
	C 167.96,368.00, 177.76,400.52, 181.16,416.00z M 672.00,368.00c-39.92,0.00-49.76-32.52-53.16-48.00C 596.88,219.36, 507.28,144.00, 400.00,144.00
	c-61.84,0.00-117.84,25.04-158.36,65.60c-18.76,18.76-49.16,18.76-67.88,0.00s-18.76-49.16,0.00-67.88C 231.64,83.84, 311.64,48.00, 400.00,48.00
	c 143.28,0.00, 264.56,94.16, 305.32,224.00L 800.00,272.00 L 800.00,368.00 L 672.00,368.00 z"  />
<glyph unicode="&#xe019;" d="M 687.56,601.96c-66.88,61.40-175.32,61.40-242.20,0.00L 400.00,560.28L 354.60,601.96c-66.88,61.40-175.28,61.40-242.16,0.00
		c-75.24-69.04-75.24-180.96,0.00-250.04L 400.00,88.00l 287.56,263.92C 762.80,421.00, 762.80,532.92, 687.56,601.96z"  />
<glyph unicode="&#xe01a;" d="M 687.56,602.00c-66.88,61.36-175.32,61.36-242.20,0.00L 400.00,560.32L 354.60,602.00c-66.88,61.36-175.28,61.36-242.16,0.00
	c-75.24-69.08-75.24-180.96,0.00-250.04L 400.00,88.00l 287.56,263.96C 762.80,421.00, 762.80,532.92, 687.56,602.00z M 645.00,393.00L 400.00,164.44L 155.04,393.00
	c-24.72,22.64-34.28,52.48-34.28,84.00c0.00,31.44, 5.52,57.28, 30.24,79.96C 172.80,577.00, 202.12,588.00, 233.48,588.00
	c 31.40,0.00, 60.72-19.04, 82.52-39.08L 400.00,475.88L 484.00,548.92C 505.80,568.96, 535.08,588.00, 566.48,588.00s 60.72-11.00, 82.56-31.04
	c 24.68-22.68, 30.16-48.52, 30.24-79.96C 679.28,445.52, 669.68,415.64, 645.00,393.00z"  />
<glyph unicode="&#xe01b;" d="M 400.00,720.00L 495.52,451.12L 752.00,451.12L 542.72,293.20L 617.52,16.00L 400.00,182.16L 182.48,16.00L 257.28,293.20L 48.00,451.12L 304.48,451.12 	z"  />
<glyph unicode="&#xe01c;" d="M 752.00,451.12l-256.52,0.00 L 399.96,720.00L 304.48,451.12L 48.00,451.12 l 209.24-157.92l-74.80-277.20l 217.52,166.16l 217.52-166.16l-74.80,277.20L 752.00,451.12z
	 M 399.96,260.64l-120.48-100.04l 49.68,142.48l-114.04,92.00l 140.84-4.00l 43.96,161.60l 44.00-161.60l 140.84,4.00l-114.04-92.00l 49.72-142.48L 399.96,260.64z
	"  />
<glyph unicode="&#xe01d;" d="M 545.92,473.48c-5.28,14.20, 141.60,145.40, 55.92,251.68c-20.08,24.84-88.04-119.04-184.60-184.16C 364.00,505.08, 240.00,428.60, 240.00,386.32l0.00-273.64 
	C 240.00,61.84, 436.56,8.00, 585.96,8.00C 640.72,8.00, 720.00,351.00, 720.00,405.52C 720.00,460.20, 551.20,459.24, 545.92,473.48z M 200.00,469.68c-26.28,0.00-120.00-16.00-120.00-124.88
	l0.00-193.92 c0.00-108.88, 93.72-120.84, 120.00-120.84s-40.00,22.88-40.00,90.36L 160.00,375.32 C 160.00,446.04, 226.28,469.68, 200.00,469.68z"  />
<glyph unicode="&#xe01e;" d="M 254.12,262.48c 5.24-14.20-141.60-145.36-55.92-251.64c 20.08-24.88, 88.04,119.00, 184.60,184.16C 436.04,230.92, 560.00,307.44, 560.00,349.68
	l0.00,273.60 C 560.00,674.16, 363.48,728.00, 214.08,728.00C 159.32,728.00, 80.00,385.00, 80.00,330.48C 80.00,275.80, 248.84,276.76, 254.12,262.48z M 600.00,266.32c 26.32,0.00, 120.00,15.96, 120.00,124.88
	L 720.00,585.08 c0.00,108.88-93.68,120.88-120.00,120.88c-26.28,0.00, 40.00-22.92, 40.00-90.36l0.00-254.92 C 640.00,289.96, 573.72,266.32, 600.00,266.32z"  />
<glyph unicode="&#xe01f;" d="M 232.00,280.00L 232.00,528.00 L 80.00,528.00 C 36.00,528.00,0.00,492.00,0.00,448.00l0.00-240.00 c0.00-44.00, 36.00-80.00, 80.00-80.00l 40.00,0.00 l0.00-120.00 l 120.00,120.00l 200.00,0.00 c 44.00,0.00, 80.00,36.00, 80.00,80.00l0.00,72.80 c-2.56-0.56-5.28-0.84-8.00-0.84L 232.00,279.96 
		z M 720.00,728.00L 360.00,728.00 C 316.00,728.00, 280.00,692.00, 280.00,648.00l0.00-320.00 l 280.00,0.00 l 120.00-120.00l0.00,120.00 l 40.00,0.00 c 44.00,0.00, 80.00,36.00, 80.00,80.00L 800.00,648.00 C 800.00,692.00, 764.00,728.00, 720.00,728.00z"  />
<glyph unicode="&#xe020;" d="M 640.00,648.00L 160.00,648.00 C 116.00,648.00, 80.00,612.00, 80.00,568.00l0.00-280.00 c0.00-44.00, 36.00-80.00, 80.00-80.00l 160.00,0.00 l 160.00-120.00l0.00,120.00 l 160.00,0.00 c 44.00,0.00, 80.00,36.00, 80.00,80.00L 720.00,568.00 C 720.00,612.00, 684.00,648.00, 640.00,648.00z"  />
<glyph unicode="&#xe021;" d="M 196.64,615.88c-64.40,0.00-116.64-53.72-116.64-120.00s 52.24-120.00, 116.64-120.00c 116.60,0.00, 38.88-232.00-116.64-232.00l0.00-55.96 
		C 357.52,87.92, 466.28,615.88, 196.64,615.88z M 532.60,615.88c-64.40,0.00-116.64-53.72-116.64-120.00s 52.24-120.00, 116.64-120.00c 116.60,0.00, 38.88-232.00-116.64-232.00
		l0.00-55.96 C 693.52,87.92, 802.28,615.88, 532.60,615.88z"  />
<glyph unicode="&#xe022;" d="M 750.80,356.00l-320.96,321.24c-16.40,17.04-43.24,17.04-59.64,0.00L 49.20,356.00c-16.44-17.00-10.32-30.96, 13.60-30.96l 66.92,0.00 l0.00-246.72 
		c0.00-17.80, 0.76-32.36, 32.96-32.36l 155.80,0.00 l0.00,247.52 l 163.00,0.00 l0.00-247.52 l 163.56,0.00 c 24.56,0.00, 25.24,14.52, 25.24,32.36l0.00,246.72 l 66.88,0.00 
		C 761.04,325.04, 767.20,338.96, 750.80,356.00z"  />
<glyph unicode="&#xe023;" d="M 640.00,688.00L 319.20,688.00 C 275.20,688.00, 240.00,652.80, 240.00,608.80L 240.00,288.00 c0.00-44.00, 36.00-80.00, 80.00-80.00l 320.00,0.00 c 44.00,0.00, 80.00,36.00, 80.00,80.00L 720.00,608.00 C 720.00,652.00, 684.00,688.00, 640.00,688.00z M 640.00,288.00L 320.00,288.00 L 320.00,608.00 l 320.00,0.00 L 640.00,288.00 z M 160.00,368.00L 80.00,368.00 l0.00-240.00 
		c0.00-44.00, 36.00-80.00, 80.00-80.00l 240.00,0.00 l0.00,80.00 L 160.00,128.00 L 160.00,368.00 z"  />
<glyph unicode="&#xe024;" d="M 688.92,486.84c-63.32,147.40-165.28,259.64-216.84,238.64c-87.56-35.60, 52.20-206.56-377.84-381.36
	c-37.16-15.08-46.56-75.52-31.00-111.64c 15.52-36.12, 66.32-72.08, 103.48-57.00c 6.40,2.60, 30.04,10.20, 30.04,10.20
	c 26.52-35.60, 54.28-14.48, 64.16-37.12c 11.84-27.20, 37.56-86.28, 46.28-106.36c 8.80-20.08, 28.64-38.72, 43.04-33.24
	c 14.32,5.48, 63.24,24.12, 81.96,31.20s 23.20,23.80, 17.48,36.96c-6.16,14.16-31.44,18.32-38.64,34.88
	c-7.24,16.56-30.80,69.56-37.56,86.28c-9.20,22.72, 10.36,41.20, 38.80,44.16c 195.76,20.40, 232.36-100.52, 299.00-73.40
	C 762.72,190.08, 752.24,339.44, 688.92,486.84z M 666.88,247.76c-11.44-4.64-88.48,56.08-137.72,170.68
	c-49.20,114.56-43.00,219.28-31.60,223.92c 11.44,4.68, 86.60-68.64, 135.84-183.20C 682.56,344.64, 678.32,252.40, 666.88,247.76z"  />
<glyph unicode="&#xe025;" d="M 400.00,448.00c-66.24,0.00-120.00-53.76-120.00-120.00c0.00-66.28, 53.76-120.00, 120.00-120.00c 66.28,0.00, 120.00,53.72, 120.00,120.00C 520.00,394.24, 466.28,448.00, 400.00,448.00z M 720.00,568.00l-95.96,0.00 
		c-13.20,0.00-27.44,10.24-31.60,22.76l-24.80,74.44C 563.40,677.76, 549.20,688.00, 536.00,688.00L 264.00,688.00 C 250.80,688.00, 236.56,677.76, 232.44,665.24L 207.56,590.76
		C 203.40,578.24, 189.20,568.00, 176.00,568.00L 80.00,568.00 C 36.00,568.00,0.00,532.00,0.00,488.00l0.00-360.00 c0.00-44.00, 36.00-80.00, 80.00-80.00l 640.00,0.00 c 44.04,0.00, 80.00,36.00, 80.00,80.00L 800.00,488.00 C 800.00,532.00, 764.04,568.00, 720.00,568.00z M 400.00,128.00
		c-110.48,0.00-200.00,89.52-200.00,200.00c0.00,110.44, 89.52,200.00, 200.00,200.00c 110.44,0.00, 200.00-89.56, 200.00-200.00C 600.00,217.52, 510.44,128.00, 400.00,128.00z M 692.00,432.08
		c-15.44,0.00-27.96,12.52-27.96,28.00s 12.52,28.00, 27.96,28.00c 15.48,0.00, 28.00-12.52, 28.00-28.00S 707.48,432.08, 692.00,432.08z"  />
<glyph unicode="&#xe026;" d="M 771.64,751.76c-4.32,12.60-17.96,19.24-30.44,14.88s-19.04-18.16-14.68-30.80c 36.80-106.80-36.24-186.56-91.88-229.24
		l-22.52,32.56c-7.52,10.88-24.48,19.96-37.60,20.16l-126.20-0.60c-13.12,0.20-32.64-5.88-43.44-13.48l-371.84-263.52
		c-18.00-12.76-22.44-37.88-9.80-56.12l 169.04-244.28c 12.60-18.24, 32.88-16.04, 50.88-3.32l 371.84,263.56
		c 10.80,7.60, 23.08,24.16, 27.44,36.72l 39.52,125.84c 4.28,12.56, 1.68,31.76-5.84,42.64l-13.76,19.84
		C 737.12,524.40, 814.72,626.68, 771.64,751.76z M 598.64,377.52c-28.84-20.44-68.56-13.32-88.76,15.84
		c-20.16,29.16-13.16,69.36, 15.68,89.80c 22.88,16.24, 52.60,15.04, 74.00-0.72c-10.80-6.56-18.16-10.32-19.56-11.00
		c-11.92-5.68-17.04-20.08-11.40-32.16c 4.08-8.76, 12.64-13.92, 21.64-13.92c 3.40,0.00, 6.88,0.76, 10.16,2.32
		c 7.64,3.64, 15.92,8.08, 24.52,13.24C 628.76,417.20, 619.40,392.24, 598.64,377.52z"  />
<glyph unicode="&#xe027;" d="M 447.24,193.84c0.00,58.04, 44.00,90.12, 115.76,137.64C 650.80,389.68, 760.00,462.08, 760.00,633.84c0.00,15.48-12.64,28.00-28.28,28.00l-137.24,0.00 
		C 575.08,697.68, 517.36,736.00, 400.00,736.00c-117.32,0.00-175.08-38.32-194.44-74.16L 68.32,661.84 C 52.68,661.84, 40.00,649.32, 40.00,633.84
		c0.00-171.76, 109.24-244.16, 197.04-302.32c 71.80-47.52, 115.80-79.60, 115.80-137.64l0.00-52.44 c-75.40-8.40-130.80-36.28-130.80-69.44
		c0.00-39.76, 79.68-72.00, 177.96-72.00c 98.32,0.00, 178.00,32.24, 178.00,72.00c0.00,33.16-55.40,61.04-130.80,69.44L 447.20,193.84 z M 558.28,396.00
		c 22.72,48.00, 40.68,113.08, 43.56,209.84l 100.36,0.00 C 692.64,497.88, 627.72,443.32, 558.28,396.00z M 400.00,686.96c 109.28,0.04, 152.00-44.64, 151.96-61.20
		c0.00-16.68-42.60-61.32-151.96-61.40C 290.72,564.48, 248.08,609.08, 248.08,625.76C 248.04,642.32, 290.72,687.04, 400.00,686.96z M 97.84,605.84l 100.32,0.00 
		C 201.08,509.08, 219.04,444.00, 241.72,396.00C 172.28,443.32, 107.40,497.88, 97.84,605.84z"  />
<glyph unicode="&#xe028;" d="M 125.36,492.40C 162.72,521.40, 193.68,501.44, 235.00,453.60C 239.68,448.24, 245.92,454.52, 249.44,457.60c 3.52,3.12, 58.08,52.16, 60.72,54.44
	C 312.84,514.40, 316.04,518.80, 311.80,523.72s-19.76,25.00-29.72,38.00c-72.32,94.60, 197.84,158.76, 156.32,159.76
	c-21.08,0.56-105.84,1.52-118.48,0.20C 268.60,716.24, 204.16,668.28, 171.72,645.96c-42.40-29.16-58.28-46.08-60.88-48.44
	c-12.00-10.52-1.92-34.68-23.68-53.76C 64.16,523.60, 49.84,538.84, 36.52,527.16c-6.64-5.84-25.08-19.64-30.40-24.32
	C 0.84,498.20-0.12,490.32, 5.28,484.00c0.00,0.00, 50.52-55.84, 54.80-60.76C 64.32,418.32, 75.72,414.16, 82.80,420.40
	c 7.08,6.20, 25.24,22.16, 28.32,24.88C 114.24,447.96, 109.12,479.80, 125.36,492.40z M 353.72,471.76c-4.80,5.56-10.72,5.68-15.88,1.12
	L 280.44,422.84c-4.48-4.00-5.08-11.36-1.04-16.00l 331.76-377.52c 7.72-8.96, 21.16-9.88, 30.08-2.12l 38.84,32.48
	c 8.84,7.76, 9.76,21.36, 2.04,30.28L 353.72,471.76z M 796.08,632.44c-2.96,19.76-13.20,15.60-18.52,7.20
	c-5.24-8.36-28.84-44.04-38.52-60.16c-9.60-16.08-33.20-47.64-77.36-16.48c-45.92,32.48-29.92,55.16-21.96,70.40
	c 8.04,15.32, 32.72,58.20, 36.32,63.60c 3.52,5.40-0.64,21.08-14.84,14.52c-14.28-6.60-100.92-41.04-112.96-90.40
	c-12.28-50.28, 10.32-95.16-34.00-139.76l-53.68-56.00l 53.92-62.72l 66.16,62.84c 15.80,15.84, 49.44,31.24, 79.92,24.32
	c 65.32-14.80, 100.92,9.76, 122.44,50.28C 802.28,536.36, 799.08,612.68, 796.08,632.44z M 109.60,85.96c-8.32-8.40-8.32-22.00,0.00-30.36
	l 38.04-37.20c 8.32-8.36, 21.52-4.84, 29.84,3.52l 196.28,193.00L 313.60,283.44L 109.60,85.96z"  />
<glyph unicode="&#xe029;" d="M 671.40,368.00c0.00,41.92, 25.80,75.00, 64.60,97.72c-7.04,23.36-16.24,45.80-27.64,66.88c-43.60-11.40-78.84,5.68-108.44,35.28
		c-29.68,29.64-38.76,64.92-27.36,108.44c-21.08,11.40-43.44,20.72-66.88,27.68C 482.96,665.16, 441.88,639.36, 400.00,639.36
		c-41.88,0.00-82.92,25.80-105.68,64.64C 270.88,697.04, 248.52,687.72, 227.44,676.36C 238.80,632.80, 229.76,597.52, 200.12,567.88
		C 170.48,538.28, 135.20,521.20, 91.68,532.56C 80.28,511.52, 71.00,489.08, 64.00,465.72C 102.84,443.00, 128.64,409.92, 128.64,368.00
		c0.00-41.88-25.80-82.96-64.64-105.72c 7.00-23.40, 16.28-45.80, 27.68-66.88c 43.56,11.40, 78.80,2.32, 108.44-27.32
		c 29.64-29.64, 38.68-64.88, 27.32-108.44c 21.08-11.40, 43.48-20.72, 66.88-27.68c 22.76,38.88, 63.80,64.64, 105.68,64.64
		c 41.88,0.00, 83.00-25.80, 105.72-64.64c 23.44,7.00, 45.80,16.28, 66.88,27.68c-11.40,43.56-2.36,78.80, 27.36,108.44
		c 29.60,29.60, 64.84,46.68, 108.44,35.32c 11.40,21.08, 20.64,43.48, 27.64,66.88C 697.20,293.04, 671.40,326.12, 671.40,368.00z M 400.00,221.88
		c-80.68,0.00-146.08,65.44-146.08,146.12S 319.32,514.12, 400.00,514.12c 80.72,0.00, 146.12-65.44, 146.12-146.12S 480.72,221.88, 400.00,221.88z"  />
<glyph unicode="&#xe02a;" d="M 739.44,580.80C 283.12,398.12, 467.96,889.80, 114.04,630.96L 40.00,604.40L 186.64,28.00l 80.76,0.00 L 195.60,310.32
		c 315.76,264.72, 187.92-288.44, 561.44,254.28C 765.72,577.20, 754.12,586.68, 739.44,580.80z"  />
<glyph unicode="&#xe02b;" d="M 314.36,180.24l-32.40-32.16c-28.08-27.80-73.72-27.84-101.76,0.00c-13.48,13.40-20.88,31.12-20.88,50.04
		s 7.44,36.68, 20.88,50.08l 119.20,118.28c 24.68,24.52, 71.16,60.56, 105.04,26.96c 15.56-15.44, 40.68-15.32, 56.08,0.20
		c 15.44,15.52, 15.36,40.64-0.20,56.08c-57.56,57.12-142.68,46.56-216.80-26.96l-119.20-118.28C 95.76,276.08, 80.00,238.32, 80.00,198.12
		c0.00-40.16, 15.76-77.92, 44.36-106.32C 153.80,62.56, 192.44,48.00, 231.08,48.00s 77.36,14.56, 106.80,43.80l 32.40,32.20
		c 15.56,15.44, 15.64,40.56, 0.20,56.04C 355.04,195.56, 329.92,195.64, 314.36,180.24z M 675.64,639.64
		c-61.84,61.36-148.28,64.68-205.56,7.88l-40.36-40.04c-15.56-15.44-15.68-40.52-0.24-56.08c 15.48-15.56, 40.56-15.64, 56.08-0.20
		l 40.36,40.04c 29.64,29.44, 68.48,17.24, 93.84-7.88c 13.48-13.36, 20.88-31.16, 20.88-50.04c0.00-18.92-7.44-36.68-20.88-50.04
		l-127.20-126.16c-58.12-57.68-85.44-30.64-97.08-19.08c-15.56,15.44-40.64,15.32-56.04-0.20c-15.44-15.56-15.36-40.68, 0.20-56.08
		c 26.68-26.48, 57.20-39.60, 89.12-39.60c 39.12,0.00, 80.44,19.68, 119.72,58.68l 127.16,126.16C 704.24,455.36, 720.00,493.12, 720.00,533.28
		S 704.24,611.24, 675.64,639.64z"  />
<glyph unicode="&#xe02c;" d="M 586.00,427.48c-91.20,196.28-138.60,270.84-287.64,267.72c-53.08-1.08-40.32,38.44-80.80,23.44
		C 177.12,703.68, 211.84,681.72, 170.44,647.76c-116.08-95.28-105.40-183.44-51.56-393.60c 22.72-88.48-54.68-92.84-24.08-178.64
		c 22.36-62.52, 187.16-88.76, 361.04-24.20c 173.88,64.48, 283.60,192.52, 261.24,255.12C 686.48,392.20, 624.44,344.84, 586.00,427.48z M 436.96,104.16
		c-155.24-57.60-282.88-23.72-288.28-8.68c-9.28,25.96, 50.12,112.64, 227.64,178.52c 177.52,65.88, 276.60,41.44, 286.96,12.44
		C 669.40,269.32, 592.28,161.80, 436.96,104.16z M 387.08,243.92c-81.20-30.12-137.60-64.56-174.12-95.60
		c 25.72-23.36, 73.84-29.04, 121.84-11.24c 61.08,22.68, 98.60,74.72, 83.76,116.20c-0.16,0.52-0.44,0.96-0.64,1.44
		C 407.92,251.48, 397.64,247.88, 387.08,243.92z"  />
<glyph unicode="&#xe02d;" d="M 60.00,487.92l 680.00,0.00 c 22.80,0.00, 19.08,24.32, 7.72,28.28C 736.36,520.16, 610.00,567.92, 588.00,567.92l-36.00,0.00 l0.00,120.00 L 248.00,687.92 l0.00-120.00 L 212.00,567.92 
		c-22.00,0.00-148.36-47.76-159.72-51.72C 40.92,512.24, 37.16,487.92, 60.00,487.92z M 748.00,443.92L 52.00,443.92 c-22.00,0.00-44.00-26.00-44.00-48.00l0.00-140.00 
		c0.00-22.00, 22.00-48.00, 44.00-48.00l 79.28,0.00 l-35.28-200.00l 608.00,0.00 l-35.28,200.00L 748.00,207.92 c 22.00,0.00, 44.00,26.00, 44.00,48.00l0.00,140.00 C 792.00,417.92, 770.00,443.92, 748.00,443.92z
		 M 176.00,87.92l 56.00,260.00l 336.00,0.00 l 55.96-260.00L 176.00,87.92 z"  />
<glyph unicode="&#xe02e;" d="M 684.60,652.64c-67.04,67.00-151.16,91.52-177.96,64.72L 398.80,609.48C 382.44,593.12, 368.16,538.36, 374.72,482.96l-326.44-326.48
		c-19.36-19.32-3.68-66.40, 35.04-105.12c 38.72-38.76, 85.84-54.40, 105.16-35.08l 326.44,326.44c 55.44-6.56, 110.20,7.72, 126.52,24.08
		l 107.88,107.88C 776.12,501.48, 751.60,585.60, 684.60,652.64z M 325.64,326.40C 310.72,341.28, 315.60,370.28, 336.40,391.12s 49.80,25.68, 64.72,10.80
		c 14.84-14.88, 10.04-43.88-10.80-64.72C 369.48,316.36, 340.52,311.52, 325.64,326.40z M 595.64,563.64c-51.92,51.92-64.96,120.40-60.36,125.04
		c 4.64,4.64, 70.44-11.12, 122.40-63.04c 51.92-51.92, 67.48-117.88, 63.00-122.36S 647.52,511.72, 595.64,563.64z"  />
<glyph unicode="&#xe02f;" d="M 701.80,149.28l-151.16,151.16c 22.80,37.48, 35.92,81.40, 35.92,128.48c0.00,136.64-118.44,255.08-255.12,255.08
		C 194.80,684.00, 84.00,573.20, 84.00,436.56c0.00-136.68, 118.40-255.12, 255.08-255.12c 45.44,0.00, 88.00,12.32, 124.60,33.72l 151.96-152.00
		c 14.92-14.88, 39.00-14.88, 53.84,0.00l 37.72,37.68C 722.04,115.72, 716.64,134.44, 701.80,149.28z M 160.16,436.56
		c0.00,94.60, 76.68,171.32, 171.28,171.32c 94.64,0.00, 178.96-84.32, 178.96-178.96s-76.68-171.32-171.32-171.32S 160.16,341.92, 160.16,436.56z"  />
<glyph unicode="&#xe030;" d="M 490.80,277.20C 377.32,163.76, 205.44,144.48, 72.00,219.20c 15.40-27.44, 34.64-53.28, 58.00-76.64c 136.80-136.80, 358.60-136.80, 495.40,0.00
		c 136.80,136.84, 136.80,358.64,0.00,495.44c-23.36,23.36-49.16,42.60-76.64,58.00C 623.52,562.56, 604.20,390.68, 490.80,277.20z"  />
<glyph unicode="&#xe031;" d="M 694.08,585.40c-124.16,82.56-263.56,111.08-428.88,63.72c-129.04-37.00-247.32-183.76-256.48-309.44
		c-10.84-148.60, 104.92-275.84, 308.72-275.64c 219.76,0.24, 302.00,105.76, 303.84,137.80c 1.80,32.08-85.76,91.36-29.40,152.32
		c 70.60,76.36, 133.44,11.28, 171.52,20.48C 801.48,383.76, 820.76,501.08, 694.08,585.40z M 439.12,212.68c-33.24,0.00-60.20,26.88-60.20,60.00
		c0.00,33.16, 26.96,60.00, 60.20,60.00s 60.16-26.84, 60.16-60.00C 499.24,239.56, 472.36,212.68, 439.12,212.68z"  />
<glyph unicode="&#xe032;" d="M 212.80,603.84C 59.92,515.12, 68.72,370.64, 74.00,317.20c 197.48,233.88, 492.84,222.52, 492.84,222.52S 148.12,396.16, 25.12,108.16
		c-9.68-22.80, 45.60-52.36, 58.20-25.48c 37.64,80.08, 90.12,140.16, 90.12,140.16c 77.44-28.84, 211.32-62.56, 306.28,4.20
		c 126.04,88.76, 113.16,285.44, 293.16,381.20C 814.92,630.64, 420.08,724.12, 212.80,603.84z"  />
<glyph unicode="&#xe033;" d="M 471.96,720.04l-64.16,0.00 l0.00-522.88 c-35.48,13.68-81.40,13.88-126.68-2.60c-81.12-29.52-129.48-101.36-108.00-160.40
		c 21.52-59.08, 104.72-83.00, 185.84-53.48c 68.92,25.08, 114.00,80.68, 112.88,133.00l 0.12,427.60c 111.88-17.60, 119.52-159.08, 106.12-198.76
		c-5.12-15.04, 3.88-26.28, 20.80,0.00C 719.48,530.24, 471.96,613.00, 471.96,720.04z"  />
<glyph unicode="&#xe034;" d="M 244.40,658.84l0.00-474.68c-25.84,5.40-55.92,3.36-85.76-7.68c-67.08-24.92-90.76-85.60-72.96-135.44
	c 17.76-49.88, 70.28-70.04, 137.36-45.12c 56.96,21.16, 94.28,68.04, 93.32,112.28c0.00,0.00,0.00,251.72,0.00,392.12l 284.04,65.08l0.00-301.20 
	c-25.84,5.40-55.92,3.36-85.76-7.68c-67.12-24.92-90.80-85.60-73.00-135.44c 17.80-49.88, 70.28-70.04, 137.40-45.12
	c 57.00,21.16, 94.24,68.04, 93.36,112.28L 672.40,750.80 L 244.40,658.84z"  />
<glyph unicode="&#xe035;" d="M 747.60,274.16l-69.08,61.60c-20.00,17.84-20.00,46.96,0.00,64.80l 69.08,61.56c 20.00,17.84, 14.64,34.44-11.88,36.96l-91.56,8.68
	c-26.52,2.52-40.80,25.32-31.68,50.68l 48.60,135.28c 9.12,25.36-2.04,34.60-24.76,20.52l-108.04-66.80
	c-22.72-14.08-52.08-6.40-65.24,17.08l-39.16,69.84c-13.12,23.48-34.88,23.60-48.28,0.28L 339.24,671.36
	C 325.84,648.04, 295.04,638.08, 270.80,649.24l-64.00,29.40C 182.52,689.76, 163.88,676.88, 165.32,649.92L 168.80,585.32
	c 1.44-26.92-18.44-54.68-44.16-61.60L 62.84,507.12C 37.12,500.16, 32.40,479.92, 52.40,462.08l 69.08-61.56c 20.00-17.80, 20.00-46.96,0.00-64.76
	L 52.40,274.24c-20.00-17.88-14.72-35.08, 11.72-38.28l 83.80-10.16c 26.44-3.28, 41.20-26.88, 32.76-52.44l-43.00-130.32
	c-8.44-25.64, 3.60-35.64, 26.72-22.20l 98.52,56.96c 23.16,13.44, 54.24,6.00, 69.12-16.32l 40.92-61.48
	c 14.84-22.44, 37.20-21.16, 49.56,2.72l 35.96,69.28c 12.44,23.92, 42.12,33.68, 65.96,21.72l 69.36-34.68
	c 23.92-11.96, 42.28,0.32, 40.84,27.28l-3.48,64.60c-1.44,26.96, 18.44,54.68, 44.16,61.64l 61.76,16.56
	C 762.88,236.12, 767.60,256.36, 747.60,274.16z M 440.00,200.20L 360.00,200.20 l0.00,84.00 l 80.00,0.00 L 440.00,200.20 z M 440.00,328.16L 360.00,328.16 l0.00,208.00 l 80.00,0.00 L 440.00,328.16 z"  />
<glyph unicode="&#xe036;" d="M 132.08,278.48c 18.56-75.24, 42.16-108.04, 120.88-142.48C 331.72,101.60, 369.12,64.00, 400.00,64.00s 65.88,32.88, 144.64,67.36
	c 78.76,34.36, 57.76,44.92, 76.32,120.08L 400.00,144.00L 132.08,278.48z M 780.44,474.56l-333.00,186.48c-26.08,14.60-68.76,14.60-94.84,0.00
	L 19.56,474.56c-26.08-14.60-26.08-38.52,0.00-53.12l 333.00-186.48c 26.08-14.60, 68.76-14.60, 94.84,0.00l 215.28,120.56l-233.44,54.68
	C 420.28,407.96, 410.40,406.72, 400.00,406.72c-42.04,0.00-76.12,20.28-76.12,45.28S 357.96,497.32, 400.00,497.32c 32.64,0.00, 60.44-12.28, 71.24-29.44
	l 247.24-81.12l 61.96,34.68C 806.52,436.04, 806.52,459.96, 780.44,474.56z M 678.68,121.12c-2.52-15.32, 51.32-40.64, 56.44,4.36
	c 23.16,202.84-16.64,261.24-16.64,261.24l-55.80-31.24C 662.68,355.52, 710.00,310.48, 678.68,121.12z"  />
<glyph unicode="&#xe037;" d="M 665.92,562.28L 306.00,747.84C 256.68,773.80, 159.48,723.64, 131.56,679.48C 119.12,659.72, 120.00,645.48, 120.00,637.40l 4.44-419.00
	c 0.28-8.92, 11.52-20.88, 21.08-26.80c 19.96-12.24, 322.40-201.00, 330.92-206.36c 4.60-2.88, 10.08-4.20, 15.44-4.20
	c 4.56,0.00, 9.16,1.00, 13.32,3.08C 514.32-11.40, 520.00-2.76, 520.00,6.72L 520.00,446.76 c0.00,9.16-5.36,17.60-14.08,22.20L 178.80,651.60
	C 182.48,658.80, 197.04,674.00, 223.80,688.00C 252.00,702.80, 273.08,697.20, 277.92,695.32c0.00,0.00, 314.00-168.04, 323.60-173.04c 9.56-5.00, 9.76-5.76, 9.76-14.28
	c0.00-8.56,0.00-417.60,0.00-417.60c0.00-20.84, 21.12-29.36, 36.68-29.36c 15.48,0.00, 32.04,15.20, 32.04,29.36L 680.00,540.08 
	C 680.00,549.24, 674.60,557.72, 665.92,562.28z"  />
<glyph unicode="&#xe038;" d="M 640.00,728.00L 160.00,728.00 C 116.00,728.00, 80.00,692.00, 80.00,648.00l0.00-560.00 c0.00-44.00, 36.00-80.00, 80.00-80.00l 480.00,0.00 c 44.04,0.00, 80.00,36.00, 80.00,80.00L 720.00,648.00 C 720.00,692.00, 684.04,728.00, 640.00,728.00z M 640.00,88.00L 160.00,88.00 L 160.00,648.00 l 480.00,0.00 L 640.00,88.00 z M 440.00,288.00L 240.00,288.00 l0.00-40.00 l 200.00,0.00 
	L 440.00,288.00 z M 560.00,448.00l-160.00,0.00 l0.00-40.00 l 160.00,0.00 L 560.00,448.00 z M 400.00,488.00l 160.00,0.00 L 560.00,568.00 l-160.00,0.00 L 400.00,488.00 z M 360.00,568.00L 240.00,568.00 l0.00-160.00 l 120.00,0.00 L 360.00,568.00 z M 320.00,368.00L 240.00,368.00 l0.00-40.00 l 80.00,0.00 L 320.00,368.00 z M 360.00,328.00l 200.00,0.00 l0.00,40.00 L 360.00,368.00 L 360.00,328.00 z M 560.00,208.00L 240.00,208.00 l0.00-40.00 l 320.00,0.00 L 560.00,208.00 z M 480.00,248.00l 80.00,0.00 l0.00,40.00 l-80.00,0.00 L 480.00,248.00 z"  />
<glyph unicode="&#xe039;" d="M 724.88,621.32c-11.84,10.24-76.24,59.00-88.28,69.36S 605.76,704.00, 592.48,704.00L 207.52,704.00 c-13.24,0.00-32.08-2.92-44.08-13.32
		c-12.04-10.40-76.44-59.16-88.28-69.36S 53.44,595.68, 56.60,573.68c 3.16-22.00, 77.48-518.92, 77.48-518.92
		C 138.24,42.24, 152.48,32.00, 165.76,32.00l 468.52,0.00 c 13.28,0.00, 27.52,10.28, 31.68,22.76c0.00,0.00, 74.28,496.92, 77.48,518.92
		C 746.56,595.68, 736.72,611.08, 724.88,621.32z M 400.00,273.28c-129.92,0.00-157.72,183.88-163.48,221.76L 310.00,495.04 c 11.08-55.28, 36.24-149.76, 90.00-149.76
		s 78.96,94.48, 90.04,149.76l 73.44,0.00 C 557.72,457.16, 529.92,273.28, 400.00,273.28z M 118.52,568.00l 88.24,92.00l 386.48,0.00 L 681.48,568.00L 118.52,568.00 z"  />
<glyph unicode="&#xe03a;" d="M 214.00-27.20l 80.00,0.00 l 179.52,320.04L 680.00,292.84 c0.00,0.00, 120.00,0.00, 120.00,55.96c0.00,56.00-120.00,56.00-120.00,56.00l-206.48,0.00 l-179.52,320.00l-80.00,0.00 l 99.52-320.00L 170.04,404.80 L 80.00,484.84L0.00,484.84 l 64.04-136.00
		L0.00,212.80l 80.00,0.00 l 90.04,80.04l 143.48,0.00 L 214.00-27.20z"  />
<glyph unicode="&#xe03b;" d="M 395.08,735.96c-203.20-2.72-365.76-169.64-363.04-372.88c 2.72-203.28, 169.68-365.76, 372.88-363.08
		c 203.24,2.72, 365.80,169.68, 363.04,372.88C 765.24,576.16, 598.28,738.68, 395.08,735.96z M 395.76,688.00c 54.80,0.76, 106.56-12.40, 152.00-36.04
		l-49.52-82.56C 468.56,583.84, 435.24,592.00, 400.00,592.00c-35.20,0.00-68.52-8.16-98.20-22.64L 252.32,651.88C 295.28,674.28, 344.00,687.28, 395.76,688.00z
		 M 198.64,269.80l-82.48-49.44c-22.40,42.92-35.40,91.64-36.08,143.36c-0.76,54.84, 12.40,106.60, 36.04,152.00l 82.52-49.56
		C 184.16,436.52, 176.00,403.24, 176.00,368.00C 176.00,332.80, 184.16,299.48, 198.64,269.80z M 404.28,48.04c-54.80-0.76-106.60,12.40-152.00,36.04l 49.52,82.56
		C 331.48,152.16, 364.80,144.00, 400.00,144.00c 35.24,0.00, 68.56,8.12, 98.20,22.60l 49.48-82.48C 504.72,61.76, 456.04,48.76, 404.28,48.04z
		 M 400.00,192.04c-97.20,0.00-175.96,78.80-175.96,175.96c0.00,97.20, 78.80,176.00, 175.96,176.00c 97.24,0.00, 176.00-78.80, 176.00-176.00
		C 576.00,270.80, 497.24,192.04, 400.00,192.04z M 601.36,269.80c 14.48,29.68, 22.64,63.00, 22.64,98.20c0.00,35.24-8.16,68.52-22.64,98.20
		l 82.48,49.52c 22.40-42.96, 35.44-91.64, 36.12-143.40c 0.72-54.84-12.44-106.60-36.08-152.00L 601.36,269.80z"  />
<glyph unicode="&#xe03c;" d="M 325.12,215.92c-27.60-47.84-9.04-87.20, 29.24-109.28s 81.68-18.56, 109.28,29.28c 27.60,47.80, 201.88,474.64, 186.72,483.40
	C 635.24,628.08, 352.72,263.76, 325.12,215.92z M 400.00,519.92c 17.52,0.00, 34.60-1.52, 51.24-4.32c 17.52,21.92, 37.16,46.08, 56.24,69.08
	C 473.40,594.56, 437.44,599.92, 400.00,599.92c-224.28,0.00-400.00-189.12-400.00-430.56c0.00-14.88, 0.68-29.72, 1.96-44.20
	c 1.96-22.00, 21.60-38.20, 43.40-36.28c 22.00,2.00, 38.24,21.40, 36.28,43.40C 80.56,144.40, 80.00,156.88, 80.00,169.36
	C 80.00,365.92, 220.60,519.92, 400.00,519.92z M 688.76,469.96c-11.16-30.00-22.96-60.56-33.36-87.00C 696.08,324.16, 720.00,250.44, 720.00,169.36
	c0.00-12.68-0.56-25.44-1.68-37.80c-2.00-22.00, 14.20-41.44, 36.20-43.48c 1.24-0.12, 2.44-0.16, 3.68-0.16
	c 20.44,0.00, 37.88,15.64, 39.76,36.36C 799.32,139.08, 800.00,154.24, 800.00,169.36C 800.00,287.40, 757.92,392.92, 688.76,469.96z"  />
<glyph unicode="&#xe03d;" d="M 624.00,584.88c0.00,85.60,0.00,93.96,0.00,93.96C 624.00,710.44, 523.72,768.00, 400.00,768.00S 176.00,710.44, 176.00,678.84c0.00,0.00,0.00-8.36,0.00-93.96
		c0.00-85.60, 155.08-156.28, 155.08-216.88c0.00-60.64-155.08-131.28-155.08-216.92c0.00-85.60,0.00-93.96,0.00-93.96C 176.00,25.56, 276.28-32.00, 400.00-32.00
		s 224.00,57.56, 224.00,89.16c0.00,0.00,0.00,8.36,0.00,93.96c0.00,85.64-155.04,156.28-155.04,216.92C 468.96,428.60, 624.00,499.32, 624.00,584.88z M 237.60,674.84
		c 27.84,17.56, 80.04,43.32, 164.56,43.32c 84.56,0.00, 160.24-43.32, 160.24-43.32c 5.68-3.44, 27.92-15.36, 12.68-24.36
		c-33.56-19.88-99.16-40.80-175.12-40.80S 260.64,632.76, 227.08,652.64C 211.84,661.68, 237.60,674.84, 237.60,674.84z M 420.04,368.00
		c0.00-47.72, 39.84-78.44, 82.08-119.44c 30.84-29.96, 73.00-70.96, 73.00-97.48l0.00-53.12 c-38.76,19.32-154.84,38.24-154.84,100.16
		c0.00,31.36-40.56,31.36-40.56,0.00c0.00-61.92-116.08-80.84-154.84-100.16l0.00,53.12 c0.00,26.48, 42.20,67.52, 73.04,97.48
		C 340.12,289.56, 379.96,320.28, 379.96,368.00c0.00,47.72-39.84,78.44-82.04,119.44C 267.08,517.40, 224.88,558.44, 224.88,584.88l-1.88,40.00
		C 264.04,602.80, 329.12,581.72, 400.00,581.72s 136.28,21.08, 177.32,43.16l-2.20-40.00c0.00-26.44-42.20-67.48-73.00-97.44
		C 459.88,446.44, 420.04,415.72, 420.04,368.00z"  />
<glyph unicode="&#xe03e;" d="M 105.76,513.72c 69.88,60.00, 125.12,107.48, 274.88,22.80c 71.96-40.68, 130.00-55.96, 178.32-55.96c 84.60,0.00, 139.40,47.08, 186.80,87.76
	c 16.92,14.52, 19.12,40.32, 4.88,57.56s-39.44,19.48-56.36,4.96c-69.88-60.04-125.08-107.48-274.92-22.80
	C 221.44,719.84, 128.72,640.20, 54.24,576.20C 37.36,561.68, 35.16,535.92, 49.36,518.68S 88.84,499.16, 105.76,513.72z M 694.24,426.56
	c-69.88-60.00-125.08-107.48-274.92-22.80C 221.44,515.56, 128.72,435.92, 54.24,371.96c-16.92-14.52-19.12-40.32-4.88-57.56
	s 39.44-19.48, 56.36-4.96c 69.88,60.04, 125.12,107.48, 274.88,22.84c 71.96-40.68, 130.00-56.00, 178.32-56.00c 84.60,0.00, 139.40,47.08, 186.80,87.80
	c 16.92,14.52, 19.12,40.28, 4.88,57.52C 736.40,438.88, 711.16,441.08, 694.24,426.56z M 694.24,222.28c-69.88-60.00-125.08-107.48-274.92-22.80
	c-197.88,111.80-290.64,32.20-365.08-31.80c-16.92-14.52-19.12-40.32-4.88-57.56s 39.44-19.48, 56.36-4.96
	C 175.64,165.20, 230.84,212.60, 380.64,128.00c 71.96-40.68, 130.00-56.00, 178.32-56.00c 84.60,0.00, 139.40,47.08, 186.80,87.80
	c 16.92,14.48, 19.12,40.28, 4.88,57.52S 711.16,236.84, 694.24,222.28z"  />
<glyph unicode="&#xe03f;" d="M 364.00,327.92L 436.00,327.92 l0.00-80.00 L 800.00,247.92 c0.00,0.00-5.92,178.32-8.00,234.16c-1.96,53.04-20.92,85.84-80.00,85.84l-128.32,0.00 
	c-19.88,37.48-41.28,77.80-47.84,90.20c-13.24,24.96-17.76,29.80-47.20,29.80L 311.36,687.92 c-29.44,0.00-33.96-4.84-47.20-29.80
	C 257.60,645.72, 236.20,605.40, 216.32,567.92L 88.00,567.92 c-59.08,0.00-77.80-32.80-80.00-85.84S0.00,247.92,0.00,247.92l 364.00,0.00 L 364.00,327.92 z M 306.00,611.32
	c 9.16,17.28, 12.32,20.64, 32.64,20.64l 122.68,0.00 c 20.40,0.00, 23.52-3.36, 32.64-20.64c 3.44-6.48, 12.72-24.00, 23.04-43.36L 283.00,567.96 
	C 293.28,587.28, 302.56,604.80, 306.00,611.32z M 436.00,127.92L 364.00,127.92 l0.00,80.00 L 20.00,207.92 c0.00,0.00, 5.00-71.92, 8.00-132.88c 1.24-25.32, 8.68-67.12, 71.96-67.12
	l 600.08,0.00 c 63.28,0.00, 70.56,41.84, 71.96,67.12c 3.48,62.68, 8.00,132.88, 8.00,132.88l-344.00,0.00 L 436.00,127.92 z"  />
<glyph unicode="&#xe040;" d="M 400.00,736.00c-203.24,0.00-368.00-164.76-368.00-368.00s 164.76-368.00, 368.00-368.00s 368.00,164.76, 368.00,368.00S 603.24,736.00, 400.00,736.00z M 400.00,248.00c-66.28,0.00-120.00,53.76-120.00,120.00
	c0.00,66.28, 53.72,120.00, 120.00,120.00c 66.24,0.00, 120.00-53.76, 120.00-120.00C 520.00,301.76, 466.24,248.00, 400.00,248.00z"  />
<glyph unicode="&#xe041;" d="M 408.12,745.56c-1.04,8.56-15.20,8.56-16.24,0.00C 356.56,461.24, 176.00,402.64, 176.00,205.04c0.00-122.04, 102.52-221.00, 224.00-221.00
	c 121.48,0.00, 224.00,99.00, 224.00,221.00C 624.00,402.64, 443.44,461.24, 408.12,745.56z M 374.04,431.28c-2.40-8.76-4.92-17.80-7.52-27.08
	c-16.04-56.96-34.24-121.56-34.24-196.24c0.00-40.48-23.92-54.84-46.28-54.84c-25.52,0.00-46.24,20.84-46.24,46.64
	c0.00,88.28, 42.52,145.92, 80.04,196.80c 11.76,15.92, 22.84,30.96, 31.88,46.00c 4.12,6.84, 15.24,6.56, 20.28-0.24
	C 374.24,439.04, 375.04,435.04, 374.04,431.28z"  />
<glyph unicode="&#xe042;" d="M 608.52,462.44c-11.00,0.00-21.84-0.96-32.36-2.72c-26.24,85.80-107.52,148.32-203.84,148.32c-117.52,0.00-212.76-93.12-212.76-208.00
	c0.00-10.24, 0.80-20.32, 2.28-30.20C 156.20,370.48, 150.52,370.92, 144.68,370.92C 64.80,370.92,0.00,307.56,0.00,229.48c0.00-78.12, 64.80-141.44, 144.68-141.44
	l 463.84,0.00 c 105.80,0.00, 191.48,83.84, 191.48,187.20C 800.00,378.60, 714.28,462.44, 608.52,462.44z M 454.88,290.00c-19.80-28.16-104.60-115.56-108.20-119.24
	c-4.16-5.12-15.64-13.72-26.52-6.64c-3.12,2.04-6.88,6.12-6.88,14.16c0.00,7.72, 3.52,15.60, 3.96,16.48l 41.32,91.44
	c-7.76,3.08-21.08,8.48-31.44,13.00L 324.36,300.40c-10.48,4.40-23.52,9.96-23.52,24.32c0.00,6.84, 3.28,14.84, 9.96,24.36
	c 19.80,28.16, 104.60,115.52, 108.20,119.24c 4.16,5.12, 15.60,13.72, 26.52,6.68c 3.12-2.04, 6.88-6.12, 6.88-14.16
	c0.00-7.72-3.52-15.60-3.96-16.48l-41.32-91.44c 7.76-3.12, 21.08-8.52, 31.44-13.00l 2.72-1.16c 10.48-4.44, 23.52-10.00, 23.52-24.36
	C 464.84,307.48, 461.56,299.52, 454.88,290.00z"  />
<glyph unicode="&#xe043;" d="M 272.12,8.04c-7.72,5.08, 126.16,286.40, 121.52,298.76c-4.60,12.36-146.56,57.48-153.52,79.20
		c-6.92,21.72, 280.32,348.24, 287.84,341.92c 7.52-6.28-125.16-289.52-121.52-298.72s 149.16-56.24, 153.52-79.16
		C 564.32,327.04, 279.84,3.00, 272.12,8.04z"  />
<glyph unicode="&#xe044;" d="M 680.00,648.00l-36.00,0.00 l0.00-80.00 L 516.00,568.00 L 516.00,648.00 L 284.00,648.00 l0.00-80.00 L 156.00,568.00 L 156.00,648.00 L 120.00,648.00 C 76.00,648.00, 40.00,612.00, 40.00,568.00l0.00-480.00 c0.00-44.00, 36.00-80.00, 80.00-80.00l 560.00,0.00 c 44.00,0.00, 80.00,36.00, 80.00,80.00L 760.00,568.00 C 760.00,612.00, 724.00,648.00, 680.00,648.00z M 680.00,88.00L 120.00,88.00 
		L 120.00,408.00 l 560.00,0.00 L 680.00,88.00 z M 248.00,728.00L 192.00,728.00 l0.00-136.00 l 56.00,0.00 L 248.00,728.00 z M 608.00,728.00l-56.00,0.00 l0.00-136.00 l 56.00,0.00 L 608.00,728.00 z"  />
<glyph unicode="&#xe045;" d="M 640.00,478.28l-24.00,0.00 c-8.84,0.00-16.00-7.20-16.00-16.00L 600.00,352.00 c0.00-53.48-42.12-144.00-200.00-144.00s-200.00,90.52-200.00,144.00L 200.00,462.28 c0.00,8.80-7.24,16.00-16.00,16.00L 160.00,478.28 
			c-8.80,0.00-16.00-7.20-16.00-16.00L 144.00,352.00 c0.00-89.48, 65.76-185.20, 216.00-198.40L 360.00,48.00 L 255.96,48.00 C 247.20,48.00, 240.00,40.80, 240.00,32.00L 240.00-16.00 C 240.00-24.80, 247.20-32.00, 255.96-32.00l 288.00,0.00 
			c 8.84,0.00, 16.00,7.20, 16.00,16.00L 559.96,32.00 c0.00,8.84-7.20,16.00-16.00,16.00L 440.00,48.00 l0.00,105.60 c 150.28,13.20, 216.00,108.96, 216.00,198.40L 656.00,462.28 
			C 656.00,471.08, 648.80,478.28, 640.00,478.28zM 400.00,288.00c 93.88,0.00, 120.00,38.56, 120.00,64.00L 520.00,478.28 L 280.00,478.28 L 280.00,352.00 C 280.00,326.56, 306.12,288.00, 400.00,288.00zM 520.00,704.00C 520.00,729.48, 493.88,768.00, 400.00,768.00S 280.00,729.48, 280.00,704.00l0.00-169.72 l 240.00,0.00 L 520.00,704.00 z"  />
<glyph unicode="&#xe046;" d="M 400.00,736.00c-203.24,0.00-368.00-164.80-368.00-368.00c0.00-203.24, 164.76-368.00, 368.00-368.00s 368.00,164.76, 368.00,368.00C 768.00,571.24, 603.24,736.00, 400.00,736.00z M 400.00,80.00
			c-159.08,0.00-288.00,128.96-288.00,288.00S 240.92,656.00, 400.00,656.00s 288.00-128.96, 288.00-288.00S 559.08,80.00, 400.00,80.00zM 428.00,576.00L 372.00,576.00L 372.00,356.40L 508.20,220.20L 547.80,259.80L 428.00,379.60 		z"  />
<glyph unicode="&#xe047;" d="M 400.00,592.00C 137.56,592.00,0.00,398.68,0.00,368.00s 137.56-224.00, 400.00-224.00s 400.00,193.32, 400.00,224.00S 662.44,592.00, 400.00,592.00z M 400.00,195.68
		c-98.16,0.00-177.76,77.16-177.76,172.32S 301.84,540.32, 400.00,540.32c 98.20,0.00, 177.80-77.16, 177.80-172.32S 498.20,195.68, 400.00,195.68z M 400.00,368.00
		c-16.24,17.84, 26.56,86.12,0.00,86.12c-49.08,0.00-88.88-38.56-88.88-86.12S 350.92,281.84, 400.00,281.84c 49.12,0.00, 88.92,38.60, 88.92,86.16
		C 488.92,389.84, 413.88,352.80, 400.00,368.00z"  />
<glyph unicode="&#xe048;" d="M 790.12,332.76c-24.96,68.32-94.68,109.08-186.48,109.08c-3.56,0.00-7.04-0.12-10.48-0.28l-0.60,82.48
	c0.00,0.00, 136.36,23.56, 140.96,24.36s 5.36,4.76, 4.40,9.20c-0.92,4.44-6.68,35.36-7.52,39.08c-1.12,5.20-4.12,5.08-8.28,4.36
	s-130.04-18.48-130.04-18.48s-0.44,78.16-0.48,83.16c-0.04,5.00-2.80,6.36-7.76,6.28c-5.00-0.08-36.84-0.56-41.04-0.64
	c-4.20-0.04-6.52-1.96-6.44-5.96c 0.08-4.00, 1.32-92.24, 1.32-92.24s-122.48-21.16-125.84-21.72s-6.80-2.16-6.00-5.72
	c 0.76-3.56, 7.60-43.72, 8.32-46.88c 0.68-3.16, 2.84-5.08, 7.48-4.28s 117.00,20.20, 117.00,20.20l 1.40-80.72
	c-43.08-11.32-72.04-32.96-90.24-52.12c-30.72-32.28-48.28-75.48-48.28-118.52c0.00-63.52, 38.80-101.16, 93.08-107.80
	c 126.52-15.48, 204.76,122.36, 230.80,188.56c 43.92-60.20, 10.28-174.16-83.76-239.16c-1.68-1.24-3.88-5.16-1.28-8.28
	s 21.60-26.48, 24.76-30.32c 3.16-3.76, 8.24-2.28, 10.24-0.84C 775.76,134.64, 821.76,246.04, 790.12,332.76z M 494.64,205.28
	c-38.60,4.84-37.72,36.56-37.72,58.12c0.00,30.92, 13.08,63.20, 35.00,86.24c 13.44,14.12, 30.00,24.84, 49.16,31.96l 3.28-171.08
	C 529.04,205.28, 512.48,203.08, 494.64,205.28z M 591.76,227.36l 1.80,164.36c 3.36,0.16, 6.68,0.40, 10.08,0.40
	c 30.92,0.00, 59.80-5.80, 75.44-14.48C 694.72,368.96, 638.16,269.16, 591.76,227.36z M 233.72,534.08C 232.52,537.84, 229.64,539.84, 225.92,539.84
	l-78.00,0.00 c-3.68,0.00-6.60-2.00-7.76-5.76C 123.72,482.12, 0.92,94.40, 0.32,92.44c-0.68-2.12-0.44-3.04, 2.48-3.04l 69.32,0.00 
	c 3.00,0.00, 3.96,0.92, 4.52,2.88c 0.64,2.04, 40.36,132.72, 40.36,132.72l 139.84,0.00 c0.00,0.00, 39.72-130.72, 40.32-132.72
	c 0.64-1.96, 1.52-2.88, 4.56-2.88l 69.28,0.00 c 2.96,0.00, 3.20,0.92, 2.48,3.04C 372.96,94.40, 250.20,482.12, 233.72,534.08z M 129.08,281.36
	l 57.88,210.00l 57.84-210.00L 129.08,281.36 z"  />
<glyph unicode="&#xe049;" d="M 210.92,491.44c 8.04,0.00, 15.80-1.20, 23.08-3.48C 261.60,518.88, 292.20,547.04, 325.32,572.00C 323.96,577.80, 323.12,583.88, 323.12,590.16
	c0.00,8.72, 1.44,17.04, 4.08,24.80C 290.12,641.60, 249.72,663.92, 206.84,681.20C 166.56,656.32, 131.48,623.88, 103.52,585.88
	c 20.76-36.76, 45.48-71.04, 73.52-102.28C 187.32,488.60, 198.80,491.44, 210.92,491.44z M 132.64,413.16c0.00,10.96, 2.28,21.44, 6.36,30.92
	C 113.92,471.68, 91.12,501.44, 71.16,533.20C 46.16,483.52, 32.00,427.40, 32.00,368.00c0.00-68.84, 18.96-133.20, 51.84-188.28
	c 11.72,66.20, 34.04,128.80, 64.80,186.16C 138.64,379.00, 132.64,395.36, 132.64,413.16z M 401.40,668.48c 20.72,0.00, 39.44-8.08, 53.44-21.16
	c 40.84,17.56, 83.88,31.04, 128.64,39.64C 529.44,718.08, 466.84,736.00, 400.00,736.00c-45.56,0.00-89.16-8.36-129.40-23.52
	c 31.96-15.80, 62.44-34.16, 91.04-54.96C 373.32,664.44, 386.88,668.48, 401.40,668.48z M 518.52,299.68c 4.88,10.16, 11.80,19.12, 20.36,26.24
	c-23.12,71.12-59.72,136.16-106.88,192.16c-9.40-4.00-19.72-6.20-30.60-6.20c-16.96,0.00-32.64,5.48-45.48,14.64
	c-28.40-21.56-54.64-45.76-78.52-72.16C 284.84,442.40, 289.20,428.32, 289.20,413.16c0.00-8.20-1.24-16.04-3.56-23.48
	C 354.32,343.80, 433.36,312.32, 518.52,299.68z M 620.08,193.96c 1.04-14.80, 1.64-29.76, 1.64-44.84c0.00-26.60-1.72-52.72-4.92-78.44
	c 62.44,45.60, 109.92,110.28, 133.92,185.56c-28.40-6.88-57.52-11.80-87.24-14.64C 656.48,220.20, 640.56,202.84, 620.08,193.96z
	 M 500.16,247.08c-90.84,15.04-175.08,49.68-248.36,99.36c-11.92-7.32-25.84-11.60-40.84-11.60c-5.52,0.00-10.84,0.60-16.04,1.68
	c-35.08-66.56-57.52-140.80-64.00-219.44c 35.04-37.56, 77.80-67.80, 125.84-88.12C 316.36,120.60, 399.72,196.48, 500.16,247.08z M 647.04,640.72
	c-58.96-5.68-115.28-20.48-167.72-42.72c 0.32-2.56, 0.44-5.20, 0.44-7.84c0.00-12.36-2.92-24.00-8.04-34.36
	c 52.40-61.52, 93.08-133.20, 118.80-211.64c 31.80-0.60, 59.04-20.08, 70.76-47.80c 35.44,3.60, 69.92,10.40, 103.16,20.16
	C 766.72,333.32, 768.00,350.48, 768.00,368.00C 768.00,476.16, 721.32,573.44, 647.04,640.72z M 539.56,205.24c-93.80-43.92-172.16-111.56-228.96-194.24
	C 339.20,3.84, 369.16,0.00, 400.00,0.00c 55.56,0.00, 108.12,12.36, 155.32,34.36c 7.56,37.08, 11.60,75.44, 11.60,114.76
	c0.00,14.16-0.68,28.24-1.72,42.20C 555.76,194.32, 547.08,199.08, 539.56,205.24z"  />
<glyph unicode="&#xe04a;" d="M 707.60,578.96c-20.08,119.12-128.80,198.68-242.76,177.64c-114.00-21.00-210.16-112.64-190.08-231.76C 279.12,499.20, 291.08,459.04, 305.28,430.24
	l-207.00-308.92c-7.64-11.40-11.96-31.96-9.68-45.64l 13.32-78.84c 2.32-13.68, 14.92-22.88, 28.00-20.48l 60.64,11.16
	c 13.12,2.44, 29.72,13.96, 36.96,25.64l 81.88,132.40l 0.72,0.84l 55.40,10.24l 95.56,155.12c 31.44-5.56, 76.48-3.68, 103.12,1.24
	C 678.24,334.04, 727.72,459.84, 707.60,578.96z M 606.64,517.92c-31.36-46.76-63.32-13.80-108.12,19.00
	c-44.76,32.76-85.40,52.92-54.04,99.68c 31.36,46.80, 93.04,58.20, 137.84,25.40C 627.12,629.24, 638.00,564.68, 606.64,517.92z"  />
<glyph unicode="&#xe04b;" d="M 616.32,368.00c0.00,110.64, 51.08,172.80, 91.08,172.80c 14.56,0.00, 52.56,0.00, 52.56,0.00C 733.28,583.16, 711.20,608.00, 613.72,608.00L 213.40,608.00 
	C 64.04,608.00,0.00,470.36,0.00,368.00s 64.04-240.00, 213.40-240.00l 400.32,0.00 c 97.52,0.00, 119.56,24.84, 146.28,67.24c0.00,0.00-12.56,0.00-52.56,0.00S 616.32,257.40, 616.32,368.00z
	 M 507.52,296.24c-6.52-10.08-27.00-0.64-27.00-0.64l-118.28,53.44c0.00,0.00-10.56-26.76-18.72-45.60s-14.44-40.20-48.36-16.32
	c-33.96,23.88-143.20,130.00-143.20,130.00s-13.84,11.32-6.92,22.00C 151.56,449.20, 172.04,439.76, 172.04,439.76l 118.28-53.44
	c0.00,0.00, 10.56,26.72, 18.72,45.60C 317.20,450.72, 323.48,472.12, 357.40,448.24c 33.96-23.88, 143.24-130.04, 143.24-130.04S 514.40,306.92, 507.52,296.24z
	 M 755.00,450.92l-29.92,0.00 c-22.40,0.00-44.24-30.20-44.24-79.20s 21.88-79.16, 44.24-79.16l 29.92,0.00 c 22.36,0.00, 45.00,30.16, 45.00,79.16
	S 777.36,450.92, 755.00,450.92z"  />
<glyph unicode="&#xe04c;" d="M 453.24,712.00L 453.24,712.00c-196.32,0.00-319.92-67.64-311.64-122.00C 144.00,574.48, 150.60,532.20, 158.96,479.00
	c-96.20-37.36-128.08-97.88-123.80-147.28c 5.04-58.44, 57.64-121.00, 173.12-131.84c 65.92-6.12, 145.24,30.00, 196.68,91.80
	c-4.92,8.32-7.72,17.92-7.72,28.28c0.00,30.92, 25.04,56.00, 55.96,56.00s 56.00-25.08, 56.00-56.00c0.00-30.48-24.40-55.24-54.72-55.92
	c-61.20-78.92-154.36-126.52-242.60-120.96c 2.04-13.00, 2.84-17.92, 3.84-24.52c 3.64-23.12, 93.88-94.40, 237.48-94.52l 0.04,0.00 
	c 143.60,0.12, 233.88,71.40, 237.48,94.52C 694.28,141.56, 756.40,534.80, 764.80,590.00C 773.12,644.32, 649.48,712.00, 453.24,712.00z M 90.96,336.60
	c-2.20,25.68, 18.20,59.88, 76.92,85.56c 8.44-53.64, 17.64-111.88, 25.72-163.00C 129.44,271.76, 93.68,305.20, 90.96,336.60z M 453.20,507.04
	C 309.60,507.12, 207.72,560.44, 207.72,580.32c-0.08,19.80, 101.88,73.20, 245.48,73.12c 143.60,0.08, 245.60-53.32, 245.52-73.12
	C 698.72,560.44, 596.84,507.12, 453.20,507.04z"  />
<glyph unicode="&#xe04d;" d="M 486.56,53.64c-1.12-12.40, 8.68-23.36, 21.84-24.44l 159.40-13.08c 13.12-1.08, 24.84,8.12, 25.96,20.52l 12.48,131.44
	l-207.24,17.08L 486.56,53.64z M 93.76,168.04l 12.44-131.44c 1.16-12.40, 12.88-21.60, 26.00-20.52l 159.40,13.08
	c 13.12,1.08, 22.96,12.08, 21.80,24.44l-12.48,131.48L 93.76,168.04z M 73.24,384.68l 12.84-135.60l 207.24,17.04L 280.44,401.60
	C 280.16,404.84, 280.00,408.24, 280.00,411.56C 280.00,473.80, 333.84,524.40, 400.00,524.40s 120.00-50.64, 120.00-112.84c0.00-3.32-0.16-6.68-0.48-9.96l-12.80-135.48l 207.20-17.04
	l 12.84,135.60C 727.56,393.64, 728.00,402.64, 728.00,411.56C 728.00,581.64, 580.84,720.00, 400.00,720.00S 72.00,581.64, 72.00,411.56
	C 72.00,402.64, 72.44,393.64, 73.24,384.68z"  />
<glyph unicode="&#xe04e;" d="M 747.36,312.08l-125.92,299.68c-9.92,20.00-36.32,36.36-58.68,36.36L 237.28,648.12 c-22.36,0.00-48.76-16.36-58.72-36.36l-125.88-299.68
		c-10.00-20.00-15.16-54.40-11.48-76.48l 27.20-147.44c 3.68-22.04, 24.92-40.08, 47.24-40.08l 568.80,0.00 c 22.36,0.00, 43.60,18.04, 47.28,40.08
		l 27.20,147.44C 762.48,257.64, 757.36,292.08, 747.36,312.08z M 692.80,207.04l-10.32-60.08c-3.12-23.08-23.92-41.96-46.16-41.96L 163.68,105.00 
		c-22.28,0.00-43.04,18.88-46.16,41.96l-10.36,60.08c-3.08,23.08, 12.60,41.96, 34.92,41.96l 515.84,0.00 
		C 680.24,248.96, 695.92,230.12, 692.80,207.04z"  />
<glyph unicode="&#xe04f;" d="M 400.00,696.00c-171.16,0.00-277.52-56.40-271.76-102.16l 57.68-474.68C 188.20,100.68, 274.76,40.12, 400.00,40.00
		c 125.28,0.12, 211.80,60.72, 214.12,79.16l 57.64,474.68C 677.52,639.60, 571.20,696.00, 400.00,696.00z M 400.00,524.36C 274.76,524.48, 185.88,569.08, 185.88,585.76
		C 185.84,602.32, 274.76,647.04, 400.00,646.96c 125.24,0.04, 214.16-44.64, 214.12-61.20C 614.12,569.08, 525.28,524.48, 400.00,524.36z"  />
<glyph unicode="&#xe050;" d="M 490.52,265.28c0.00,0.00, 282.36,203.72, 251.04,436.92c-0.72,5.12-2.40,8.48-4.48,10.76c-2.20,2.12-5.48,3.88-10.52,4.60
	C 498.68,749.52, 299.60,460.60, 299.60,460.60C 126.88,481.32, 139.44,446.84, 60.64,257.60c-15.08-36.08, 9.36-48.52, 36.16-38.36
	c 26.80,10.08, 85.96,32.44, 85.96,32.44l 103.56-105.96c0.00,0.00-21.84-60.52-31.72-87.92c-9.88-27.48, 2.24-52.48, 37.52-37.08
	C 477.08,101.40, 510.76,88.56, 490.52,265.28z M 530.84,501.92c-23.92,24.48-23.92,64.16,0.00,88.64c 23.92,24.44, 62.68,24.44, 86.60,0.00
	c 23.96-24.44, 23.96-64.16,0.00-88.64C 593.56,477.40, 554.76,477.40, 530.84,501.92z"  />
<glyph unicode="&#xe051;" d="M 110.52,225.52c-60.56-59.52-9.40-120.64-89.88-211.24c-36.32-40.88, 149.52-28.40, 241.60,62.12
	c 39.04,38.36, 28.04,94.32-13.84,135.52C 206.52,253.08, 149.56,263.88, 110.52,225.52z M 781.64,741.68c-31.08,30.52-375.16-245.20-477.60-345.88
	c-50.84-49.96-67.80-76.76-83.40-96.80c-6.76-8.72, 2.20-11.40, 6.20-13.48c 20.12-10.24, 34.20-19.76, 52.44-37.68
	c 18.24-17.88, 27.96-31.72, 38.36-51.52c 2.08-3.96, 4.84-12.76, 13.68-6.08c 20.40,15.32, 47.64,32.00, 98.44,81.96
	C 532.20,372.88, 812.64,711.12, 781.64,741.68z"  />
<glyph unicode="&#xe052;" d="M 720.00,608.00l-40.00,0.00 l0.00-600.00 l 40.00,0.00 c 44.00,0.00, 80.00,36.00, 80.00,80.00L 800.00,528.00 C 800.00,572.00, 764.00,608.00, 720.00,608.00z M0.00,528.00l0.00-440.00 c0.00-44.00, 36.00-80.00, 80.00-80.00l 40.00,0.00 L 120.00,608.00 L 80.00,608.00 C 36.00,608.00,0.00,572.00,0.00,528.00z M 536.00,691.72
	C 508.76,704.40, 465.28,728.00, 400.00,728.00S 291.24,704.40, 264.00,691.72L 264.00,608.00 L 176.00,608.00 l0.00-600.00 l 448.00,0.00 L 624.00,608.00 L 536.00,608.00 L 536.00,691.72 z M 488.00,608.00L 312.00,608.00 L 312.00,661.40 C 333.32,670.60, 363.92,680.00, 400.00,680.00
	s 66.64-9.36, 88.00-18.56L 488.00,608.00 z"  />
<glyph unicode="&#xe053;" d="M 400.00,284.84c 95.60,0.00, 175.64,32.48, 180.48,74.92c-14.20,39.88-29.72,83.36-44.96,126.12c-10.56-30.48-69.00-52.00-135.52-52.00
	S 275.08,455.36, 264.44,485.84C 249.20,443.08, 233.76,399.64, 219.52,359.72C 224.36,317.32, 304.36,284.84, 400.00,284.84z M 400.00,553.04
	c 44.92,0.00, 86.68,13.92, 98.92,35.52c-16.84,47.32-31.32,87.88-40.48,113.48C 452.40,719.12, 424.84,728.00, 400.00,728.00S 347.60,719.12, 341.56,702.08
	c-9.16-25.60-23.60-66.20-40.48-113.48C 313.32,566.96, 355.08,553.04, 400.00,553.04z M 751.20,245.36l-150.20,60.52l 17.32-48.28
	c-0.88-51.12-100.20-91.92-218.32-91.92s-217.44,40.80-218.28,91.92l 17.28,48.28L 48.80,245.36c-42.12-17.00-43.88-48.40-3.96-69.80
	l 282.48-151.48c 39.96-21.40, 105.36-21.40, 145.32,0.00l 282.48,151.48C 795.12,196.96, 793.32,228.36, 751.20,245.36z"  />
<glyph unicode="&#xe054;" d="M 304.48,597.68c-14.68,13.80-34.52,13.80-49.24,0.00L0.00,368.00l 255.24-229.64c 14.72-13.84, 34.56-13.84, 49.24,0.00s 14.68,36.24,0.00,50.08
	L 106.32,368.00l 198.20,179.52C 319.16,561.36, 319.16,583.80, 304.48,597.68z M 544.76,597.68c-14.72,13.80-34.52,13.80-49.24,0.00
	c-14.68-13.88-13.92-36.28, 0.84-50.12L 693.68,368.00l-197.36-179.56c-14.72-13.84-15.52-36.24-0.84-50.08
	c 14.72-13.84, 34.52-13.84, 49.24,0.00L 800.00,368.00L 544.76,597.68z"  />
<glyph unicode="&#xe055;" d="M 760.00,400.00c-7.28,0.00-31.96,0.00-39.20,0.00c-22.08,0.00-40.00-14.32-40.00-32.00s 17.92-32.00, 40.00-32.00c 7.28,0.00, 31.96,0.00, 39.20,0.00c 22.12,0.00, 40.00,14.32, 40.00,32.00
	S 782.12,400.00, 760.00,400.00z M 400.00,588.00C 278.00,588.00, 180.00,490.00, 180.00,368.00c0.00-122.04, 98.00-220.00, 220.00-220.00c 122.00,0.00, 220.00,97.96, 220.00,220.00
	C 620.00,490.00, 522.00,588.00, 400.00,588.00z M 404.00,208.00C 311.60,208.00, 240.00,279.60, 240.00,368.00c0.00,88.36, 71.60,160.00, 164.00,160.00L 404.00,208.00 z M 119.16,368.00c0.00,17.68-17.08,32.00-39.16,32.00
	c-7.40,0.00-32.64,0.00-40.00,0.00c-22.08,0.00-40.00-14.32-40.00-32.00s 17.92-32.00, 40.00-32.00c 7.36,0.00, 32.60,0.00, 40.00,0.00C 102.08,336.00, 119.16,350.32, 119.16,368.00z M 400.00,648.00
	c 17.64,0.00, 32.00,17.92, 32.00,40.00c0.00,7.32,0.00,32.68,0.00,40.00c0.00,22.08-14.32,40.00-32.00,40.00S 368.00,750.08, 368.00,728.00c0.00-7.32,0.00-32.68,0.00-40.00C 368.00,665.92, 382.36,648.00, 400.00,648.00z
	 M 400.00,88.00c-17.64,0.00-32.00-17.92-32.00-40.00c0.00-7.32,0.00-32.68,0.00-40.00c0.00-22.12, 14.32-40.00, 32.00-40.00s 32.00,17.88, 32.00,40.00c0.00,7.32,0.00,32.68,0.00,40.00
	C 432.00,70.08, 417.64,88.00, 400.00,88.00z M 694.60,617.36c 15.64,15.64, 18.16,38.44, 5.68,50.92s-35.28,9.96-50.88-5.68
	c-4.28-4.32-23.68-23.68-28.00-28.00c-15.64-15.64-18.16-38.40-5.68-50.88s 35.32-10.00, 50.92,5.64
	C 670.92,593.68, 690.32,613.04, 694.60,617.36z M 133.36,146.64c-4.32-4.32-23.68-23.72-28.00-28.00c-15.60-15.64-18.12-38.40-5.64-50.88
	c 12.48-12.48, 35.28-9.96, 50.88,5.64c 4.32,4.28, 23.72,23.68, 28.00,28.00c 15.64,15.64, 18.16,38.40, 5.64,50.88
	S 148.96,162.20, 133.36,146.64z M 150.64,662.64C 135.00,678.24, 112.24,680.80, 99.72,668.28S 89.76,633.00, 105.36,617.36
	c 4.32-4.32, 23.68-23.68, 28.00-28.00c 15.64-15.60, 38.40-18.16, 50.88-5.64s 10.00,35.28-5.64,50.88C 174.32,638.92, 154.96,658.32, 150.64,662.64z
	 M 621.36,101.36c 4.32-4.32, 23.72-23.72, 28.00-28.00c 15.64-15.60, 38.44-18.12, 50.88-5.64c 12.48,12.48, 9.96,35.28-5.64,50.88
	c-4.32,4.28-23.72,23.68-28.00,28.00c-15.64,15.60-38.44,18.12-50.92,5.64S 605.80,117.00, 621.36,101.36z"  />
<glyph unicode="&#xe056;" d="M 760.00,400.00c-7.28,0.00-31.96,0.00-39.20,0.00c-22.08,0.00-40.00-14.32-40.00-32.00s 17.92-32.00, 40.00-32.00c 7.28,0.00, 31.96,0.00, 39.20,0.00c 22.12,0.00, 40.00,14.32, 40.00,32.00
	S 782.12,400.00, 760.00,400.00z M 400.00,588.00C 278.00,588.00, 180.00,490.00, 180.00,368.00c0.00-122.04, 98.00-220.00, 220.00-220.00c 122.04,0.00, 220.00,97.96, 220.00,220.00
	C 620.00,490.00, 522.04,588.00, 400.00,588.00z M 400.00,208.00c-88.40,0.00-160.00,71.60-160.00,160.00c0.00,88.36, 71.60,160.00, 160.00,160.00s 160.00-71.64, 160.00-160.00C 560.00,279.60, 488.40,208.00, 400.00,208.00z M 119.16,368.00
	c0.00,17.68-17.08,32.00-39.16,32.00c-7.40,0.00-32.64,0.00-40.00,0.00c-22.08,0.00-40.00-14.32-40.00-32.00s 17.92-32.00, 40.00-32.00c 7.36,0.00, 32.60,0.00, 40.00,0.00
	C 102.08,336.00, 119.16,350.32, 119.16,368.00z M 400.00,648.00c 17.64,0.00, 32.00,17.92, 32.00,40.00c0.00,7.32,0.00,32.68,0.00,40.00c0.00,22.08-14.32,40.00-32.00,40.00S 368.00,750.08, 368.00,728.00
	c0.00-7.32,0.00-32.68,0.00-40.00C 368.00,665.92, 382.36,648.00, 400.00,648.00z M 400.00,88.00c-17.64,0.00-32.00-17.92-32.00-40.00c0.00-7.32,0.00-32.68,0.00-40.00c0.00-22.12, 14.32-40.00, 32.00-40.00
	s 32.00,17.88, 32.00,40.00c0.00,7.32,0.00,32.68,0.00,40.00C 432.00,70.08, 417.64,88.00, 400.00,88.00z M 694.60,617.36c 15.64,15.64, 18.16,38.44, 5.68,50.92
	s-35.28,9.96-50.88-5.68c-4.28-4.32-23.68-23.68-28.00-28.00c-15.64-15.64-18.16-38.40-5.68-50.88s 35.32-10.00, 50.92,5.64
	C 670.92,593.68, 690.32,613.04, 694.60,617.36z M 133.36,146.64c-4.32-4.32-23.68-23.72-28.00-28.00c-15.60-15.64-18.12-38.40-5.64-50.88
	c 12.48-12.48, 35.28-9.96, 50.88,5.64c 4.32,4.28, 23.72,23.68, 28.00,28.00c 15.64,15.64, 18.16,38.40, 5.64,50.88
	S 148.96,162.20, 133.36,146.64z M 150.64,662.64C 135.00,678.24, 112.24,680.80, 99.72,668.28S 89.76,633.00, 105.36,617.36
	c 4.32-4.32, 23.68-23.68, 28.00-28.00c 15.64-15.60, 38.40-18.16, 50.88-5.64s 10.00,35.28-5.64,50.88C 174.32,638.92, 154.96,658.32, 150.64,662.64z
	 M 621.36,101.36c 4.32-4.32, 23.72-23.72, 28.00-28.00c 15.64-15.60, 38.44-18.12, 50.92-5.64c 12.48,12.48, 9.92,35.28-5.68,50.88
	c-4.32,4.28-23.72,23.68-28.00,28.00c-15.64,15.60-38.44,18.12-50.92,5.64S 605.80,117.00, 621.36,101.36z"  />
<glyph unicode="&#xe057;" d="M 400.00,496.00c-70.96,0.00-128.00-57.00-128.00-128.00s 57.00-128.00, 128.00-128.00s 128.00,57.00, 128.00,128.00S 470.96,496.00, 400.00,496.00z M 400.00,285.96
	c-45.32,0.00-82.00,36.72-82.00,82.00c0.00,45.32, 36.68,82.00, 82.00,82.00s 82.00-36.68, 82.00-82.00C 482.00,322.68, 445.32,285.96, 400.00,285.96z M 160.00,400.00
	c-22.08,0.00-40.00-14.32-40.00-32.00s 17.92-32.00, 40.00-32.00s 39.20,14.32, 39.20,32.00S 182.08,400.00, 160.00,400.00z M 596.28,564.28c-12.48,12.48-35.28,9.96-50.88-5.64
	c-15.64-15.64-18.16-38.40-5.68-50.92s 35.28-9.96, 50.88,5.64C 606.24,528.96, 608.80,551.76, 596.28,564.28z M 640.00,400.00
	c-22.12,0.00-39.20-14.32-39.20-32.00s 17.12-32.00, 39.20-32.00s 40.00,14.32, 40.00,32.00S 662.12,400.00, 640.00,400.00z M 400.00,168.00c-17.64,0.00-32.00-17.92-32.00-40.00
	c0.00-22.12, 14.32-40.00, 32.00-40.00s 32.00,17.88, 32.00,40.00C 432.00,150.08, 417.64,168.00, 400.00,168.00z M 209.36,218.64c-15.60-15.64-18.16-38.44-5.68-50.92
	s 35.32-9.92, 50.92,5.68c 15.64,15.64, 18.16,38.44, 5.68,50.92C 247.80,236.76, 225.00,234.24, 209.36,218.64z M 201.72,562.28
	C 189.20,549.76, 191.76,527.00, 207.40,511.36c 15.64-15.60, 38.40-18.16, 50.92-5.64s 9.96,35.28-5.68,50.88
	C 237.04,572.24, 214.20,574.76, 201.72,562.28z M 547.40,175.36c 15.64-15.60, 38.40-18.12, 50.88-5.64s 9.96,35.28-5.64,50.88
	c-15.64,15.64-38.44,18.16-50.92,5.68S 531.76,190.96, 547.40,175.36z M 400.00,568.00c 17.64,0.00, 32.00,17.92, 32.00,40.00S 417.64,648.00, 400.00,648.00S 368.00,630.08, 368.00,608.00
	S 382.36,568.00, 400.00,568.00z"  />
<glyph unicode="&#xe058;" d="M 720.00,568.00L 80.00,568.00 C 36.00,568.00,0.00,532.00,0.00,488.00l0.00-240.00 c0.00-44.00, 36.00-80.00, 80.00-80.00l 640.00,0.00 c 44.00,0.00, 80.00,36.00, 80.00,80.00L 800.00,488.00 C 800.00,532.00, 764.00,568.00, 720.00,568.00z M 720.00,248.00L 80.00,248.00 L 80.00,488.00 l 640.00,0.00 L 720.00,248.00 z"  />
<glyph unicode="&#xe059;" d="M 720.00,568.00L 80.00,568.00 C 36.00,568.00,0.00,532.00,0.00,488.00l0.00-240.00 c0.00-44.00, 36.00-80.00, 80.00-80.00l 640.00,0.00 c 44.04,0.00, 80.00,36.00, 80.00,80.00L 800.00,488.00 C 800.00,532.00, 764.04,568.00, 720.00,568.00z M 720.00,248.00L 80.00,248.00 L 80.00,488.00 l 640.00,0.00 L 720.00,248.00 z M 280.00,447.20L 120.00,447.20 
			l0.00-158.36 l 160.00,0.00 L 280.00,447.20 z"  />
<glyph unicode="&#xe05a;" d="M 720.00,568.00L 80.00,568.00 C 36.00,568.00,0.00,532.00,0.00,488.00l0.00-240.00 c0.00-44.00, 36.00-80.00, 80.00-80.00l 640.00,0.00 c 44.04,0.00, 80.00,36.00, 80.00,80.00L 800.00,488.00 C 800.00,532.00, 764.04,568.00, 720.00,568.00z M 720.00,248.00L 80.00,248.00 L 80.00,488.00 l 640.00,0.00 L 720.00,248.00 z M 480.00,447.20L 320.00,447.20 
			l0.00-158.36 l 160.00,0.00 L 480.00,447.20 z M 280.00,447.20L 120.00,447.20 l0.00-158.36 l 160.00,0.00 L 280.00,447.20 z"  />
<glyph unicode="&#xe05b;" d="M 720.00,568.00L 80.00,568.00 C 36.00,568.00,0.00,532.00,0.00,488.00l0.00-240.00 c0.00-44.00, 36.00-80.00, 80.00-80.00l 640.00,0.00 c 44.04,0.00, 80.00,36.00, 80.00,80.00L 800.00,488.00 C 800.00,532.00, 764.04,568.00, 720.00,568.00z M 720.00,248.00L 80.00,248.00 L 80.00,488.00 l 640.00,0.00 L 720.00,248.00 z M 680.00,447.20l-160.00,0.00 
			l0.00-158.36 l 160.00,0.00 L 680.00,447.20 z M 480.00,447.20L 320.00,447.20 l0.00-158.36 l 160.00,0.00 L 480.00,447.20 z M 280.00,447.20L 120.00,447.20 l0.00-158.36 l 160.00,0.00 L 280.00,447.20 z"  />
<glyph unicode="&#xe05c;" d="M 720.00,728.00L 80.00,728.00 C 36.00,728.00,0.00,692.00,0.00,648.00l0.00-480.00 c0.00-44.00, 36.00-79.20, 80.00-79.20l 159.20,0.00 L 239.20,167.20 l-160.00,0.00 L 79.20,536.00 l 641.60,0.00 l0.00-368.80 l-160.00,0.00 l0.00-78.44 L 720.00,88.76 c 44.04,0.00, 80.00,35.24, 80.00,79.20L 800.00,648.00 
	C 800.00,692.00, 764.04,728.00, 720.00,728.00z M 104.04,594.80c-16.60,0.00-30.00,13.08-30.00,29.20s 13.40,29.20, 30.00,29.20c 16.56,0.00, 30.00-13.08, 30.00-29.20
	S 120.60,594.80, 104.04,594.80z M 184.04,594.80c-16.60,0.00-30.00,13.08-30.00,29.20s 13.40,29.20, 30.00,29.20c 16.56,0.00, 30.00-13.08, 30.00-29.20
	S 200.60,594.80, 184.04,594.80z M 720.84,599.20L 239.20,599.20 L 239.20,648.80 l 481.60,0.00 L 720.80,599.20 z M 397.92,441.04l-194.08-192.88l 120.00,0.00 L 323.84,8.00 l 148.16,0.00 l0.00,240.16 l 120.00,0.00 L 397.92,441.04z"  />
<glyph unicode="&#xe05d;" d="M 720.00,688.00L 80.00,688.00 C 36.00,688.00,0.00,652.00,0.00,608.00l0.00-480.00 c0.00-44.04, 36.00-80.00, 80.00-80.00l 640.00,0.00 c 44.00,0.00, 80.00,35.96, 80.00,80.00L 800.00,608.00 C 800.00,652.00, 764.00,688.00, 720.00,688.00z M 184.00,613.20
	c 16.60,0.00, 30.00-13.04, 30.00-29.16c0.00-16.16-13.40-29.20-30.00-29.20S 154.00,567.88, 154.00,584.00C 154.00,600.16, 167.44,613.20, 184.00,613.20z M 74.00,584.00
	c0.00,16.12, 13.40,29.16, 30.00,29.16S 134.00,600.16, 134.00,584.00c0.00-16.16-13.40-29.20-30.00-29.20S 74.00,567.88, 74.00,584.00z M 720.80,128.00L 79.20,128.00 L 79.20,496.00 l 641.60,0.00 
	L 720.80,128.00 z M 720.80,560.00L 240.00,560.00 L 240.00,608.00 l 480.80,0.00 L 720.80,560.00 z"  />
<glyph unicode="&#xe05e;" d="M 744.00,608.00L 56.00,608.00 C 25.20,608.00,0.00,582.80,0.00,552.00l0.00-368.04 C0.00,153.20, 25.20,128.00, 56.00,128.00l 688.00,0.00 c 30.84,0.00, 56.00,25.20, 56.00,55.96L 800.00,552.00 C 800.00,582.80, 774.80,608.00, 744.00,608.00
	z M 440.00,528.00l 80.00,0.00 l0.00-80.00 l-80.00,0.00 L 440.00,528.00 z M 560.00,408.00l0.00-80.00 l-80.00,0.00 L 480.00,408.00 L 560.00,408.00 z M 320.00,528.00l 80.00,0.00 l0.00-80.00 L 320.00,448.00 L 320.00,528.00 z M 440.00,408.00l0.00-80.00 L 360.00,328.00 L 360.00,408.00 L 440.00,408.00 z M 200.00,528.00l 80.00,0.00 l0.00-80.00 L 200.00,448.00 L 200.00,528.00 z M 320.00,408.00l0.00-80.00 L 240.00,328.00 L 240.00,408.00 L 320.00,408.00 z M 80.00,528.00l 80.00,0.00 l0.00-80.00 L 80.00,448.00 L 80.00,528.00 z M 200.00,408.00l0.00-80.00 L 120.00,328.00 L 120.00,408.00 L 200.00,408.00 z M 160.00,208.00
	L 80.00,208.00 l0.00,80.00 l 80.00,0.00 L 160.00,208.00 z M 600.00,208.00L 200.00,208.00 l0.00,80.00 l 400.00,0.00 L 600.00,208.00 z M 720.00,208.00l-80.00,0.00 l0.00,80.00 l 80.00,0.00 L 720.00,208.00 z M 600.00,328.00L 600.00,408.00 l 80.00,0.00 l0.00-80.00 L 600.00,328.00 z M 720.00,448.00l-160.00,0.00 L 560.00,528.00 l 160.00,0.00 L 720.00,448.00 z"  />
<glyph unicode="&#xe05f;" d="M 400.00,752.04c-211.76,0.00-384.00-172.32-384.00-384.04c0.00-211.76, 172.24-384.04, 384.00-384.04s 384.00,172.28, 384.00,384.04
	C 784.00,579.72, 611.76,752.04, 400.00,752.04z M 727.52,368.00c0.00-74.92-25.44-144.04-67.84-199.24c-12.00,9.40-24.72,34.72-12.72,60.96
	c 12.08,26.40, 15.24,87.52, 12.48,111.28c-2.64,23.76-15.00,81.04-48.60,81.60c-33.48,0.52-56.48,11.56-76.40,51.32
	c-41.32,82.68, 77.56,98.60, 36.24,144.40c-11.56,12.84-71.32-52.96-80.08,34.72C 490.00,659.32, 496.00,668.72, 504.00,678.44
	C 633.76,634.84, 727.52,512.20, 727.52,368.00z M 355.00,692.24C 347.20,677.04, 326.52,670.80, 313.92,659.32C 286.60,634.60, 274.84,638.00, 260.08,614.24
	c-14.80-23.76-62.64-57.96-62.64-75.16c0.00-17.16, 24.16-37.48, 36.24-33.52c 12.08,4.00, 43.92,3.76, 62.64-2.80
	c 18.76-6.64, 156.60-13.24, 112.64-129.76c-13.92-37.04-74.88-30.80-91.12-92.16c-2.44-9.00-10.84-47.44-11.44-60.00
	c-0.96-19.44, 13.76-92.72-5.00-92.72c-18.84,0.00-69.48,65.56-69.48,77.44s-13.16,53.56-13.16,89.20s-60.68,35.08-60.68,82.48
	c0.00,42.80, 32.92,64.08, 25.52,84.52c-7.28,20.40-65.08,21.12-89.16,23.60C 136.52,594.64, 235.60,675.76, 355.00,692.24z M 297.00,57.20
	c 19.68,10.36, 21.68,23.80, 39.52,24.52c 20.40,0.88, 37.00,7.96, 59.96,13.00c 20.44,4.44, 56.92,25.16, 89.12,27.80
	c 27.08,2.24, 80.60-1.40, 95.00-27.56c-51.84-34.40-113.92-54.48-180.60-54.48C 364.00,40.48, 329.40,46.40, 297.00,57.20z"  />
<glyph unicode="&#xe060;" d="M 720.00,720.00L 80.00,720.00 c-44.00,0.00-80.00-36.00-80.00-80.00l0.00-440.00 c0.00-44.00, 35.28-87.08, 78.44-95.72l 174.88-34.96c0.00,0.00-150.52-53.32-53.32-53.32l 400.00,0.00 
	c 97.20,0.00-53.32,53.32-53.32,53.32l 174.88,34.96C 764.68,112.92, 800.00,156.00, 800.00,200.00l0.00,440.00 C 800.00,684.00, 764.00,720.00, 720.00,720.00z M 720.00,204.00L 80.00,204.00 L 80.00,648.00 l 640.00,0.00 L 720.00,204.00 z"  />
<glyph unicode="&#xe061;" d="M 636.08,544.00c-83.16,0.00-174.28-46.32-236.08-116.60C 338.20,497.68, 247.04,544.00, 163.88,544.00C 84.64,544.00,0.00,497.76,0.00,368.00
	s 84.64-175.96, 163.88-176.00l0.00,0.00c 83.20,0.00, 174.32,46.32, 236.12,116.60c 61.80-70.28, 152.92-116.60, 236.08-116.60C 715.36,192.00, 800.00,238.24, 800.00,368.00
	S 715.36,544.00, 636.08,544.00z M 163.88,262.40c-60.48,0.00-91.16,35.52-91.16,105.60s 30.68,105.64, 91.16,105.64c 66.88,0.00, 144.56-43.44, 192.24-105.64
	C 308.44,305.80, 230.80,262.40, 163.88,262.40z M 636.08,262.40c-66.88,0.00-144.56,43.40-192.24,105.60c 47.64,62.20, 125.36,105.64, 192.24,105.64
	c 60.52,0.00, 91.16-35.56, 91.16-105.64S 696.60,262.40, 636.08,262.40z"  />
<glyph unicode="&#xe062;" d="M 287.40,1.20c 31.56-20.40, 68.12-34.20, 112.60-33.12
	c 44.48-1.08, 81.00,12.72, 112.56,33.12L 512.56,84.00 L 287.40,84.00 L 287.40,1.20 z M 507.84,132.04c0.00,174.24, 185.24,230.00, 171.36,403.56
	C 670.48,645.12, 596.28,768.00, 400.00,768.00S 129.52,645.12, 120.80,535.60c-13.88-173.60, 171.32-229.32, 171.32-403.56L 507.84,132.04 z M 205.52,529.28
	C 213.84,633.24, 284.56,685.96, 400.00,685.96c 115.44,0.00, 186.16-52.72, 194.44-156.68c 4.52-56.92-28.20-94.88-72.40-157.04
	c-32.52-45.84-71.00-99.96-89.00-170.44L 366.92,201.80 c-18.00,70.48-56.44,124.56-89.04,170.44C 233.72,434.44, 201.00,472.36, 205.52,529.28z"  />
<glyph unicode="&#xe063;" d="M 720.00,648.00L 80.00,648.00 C 36.00,648.00,0.00,612.00,0.00,568.00l0.00-400.00 c0.00-44.00, 36.00-80.00, 80.00-80.00l 640.00,0.00 c 44.00,0.00, 80.00,36.00, 80.00,80.00L 800.00,568.00 C 800.00,612.00, 764.00,648.00, 720.00,648.00z M 720.00,168.00L 80.00,168.00 L 80.00,408.00 l 640.00,0.00 L 720.00,168.00 z M 720.00,528.00L 80.00,528.00 L 80.00,568.00 l 640.00,0.00 L 720.00,528.00 z
	 M 160.00,324.00L 160.00,300.00 l 24.00,0.00 L 184.00,324.00 L 160.00,324.00 z M 304.00,276.00L 304.00,252.00 l 48.00,0.00 L 352.00,276.00 L 376.00,276.00 l0.00,24.00 L 400.00,300.00 L 400.00,324.00 L 352.00,324.00 L 352.00,300.00 L 328.00,300.00 l0.00-24.00 L 304.00,276.00 z M 400.00,252.00L 400.00,276.00 L 376.00,276.00 L 376.00,252.00 L 400.00,252.00 z M 280.00,252.00
	L 280.00,276.00 L 232.00,276.00 L 232.00,252.00 L 280.00,252.00 z M 304.00,300.00l 24.00,0.00 L 328.00,324.00 L 280.00,324.00 l0.00-48.00 l 24.00,0.00 L 304.00,300.00 z M 208.00,276.00l 24.00,0.00 l0.00,24.00 l 24.00,0.00 L 256.00,324.00 L 208.00,324.00 L 208.00,300.00 L 184.00,300.00 l0.00-24.00 L 160.00,276.00 L 160.00,252.00 l 48.00,0.00 L 208.00,276.00 z"  />
<glyph unicode="&#xe064;" d="M 669.08,254.40c-33.76-54.56-141.40-94.44-269.08-94.44c-127.60,0.00-235.32,39.88-269.04,94.44C 123.80,265.96, 120.00,259.76, 120.00,254.04
	c0.00-5.76,0.00-80.08,0.00-80.08C 120.00,96.40, 245.36,16.00, 400.00,16.00s 280.00,80.40, 280.00,157.96c0.00,0.00,0.00,74.32,0.00,80.08C 680.00,259.76, 676.16,265.96, 669.08,254.40z
	 M 669.48,459.00c-33.16-48.24-141.28-83.60-269.48-83.60s-236.32,35.36-269.48,83.60C 123.64,468.96, 120.00,463.56, 120.00,459.04c0.00-4.52,0.00-94.24,0.00-94.24
	c0.00-70.52, 125.36-127.64, 280.00-127.64s 280.00,57.12, 280.00,127.64c0.00,0.00,0.00,89.72,0.00,94.24C 680.00,463.56, 676.32,468.96, 669.48,459.00z M 400.00,720.00
	c-154.64,0.00-280.00-47.12-280.00-105.28l0.00-50.36 c0.00-61.68, 125.36-111.68, 280.00-111.68s 280.00,50.00, 280.00,111.68L 680.00,614.68 C 680.00,672.88, 554.64,720.00, 400.00,720.00z"  />
<glyph unicode="&#xe065;" d="M 616.00,535.96c-101.64,0.00-184.04-82.40-184.04-184.00c0.00-38.60, 11.92-74.40, 32.24-104.00L 335.80,247.96 C 356.08,277.56, 368.00,313.40, 368.00,352.00
	c0.00,101.60-82.40,184.00-184.00,184.00S0.00,453.60,0.00,352.00S 82.40,168.00, 184.00,168.00l 432.00,0.00 c 101.60,0.00, 184.00,82.40, 184.00,184.00S 717.60,535.96, 616.00,535.96z M 80.00,352.00
	c0.00,57.44, 46.56,104.00, 104.00,104.00s 104.00-46.56, 104.00-104.00c0.00-57.48-46.56-104.00-104.00-104.00S 80.00,294.52, 80.00,352.00z M 616.00,248.00c-57.48,0.00-104.04,46.52-104.04,104.00
	c0.00,57.44, 46.56,104.00, 104.04,104.00c 57.44,0.00, 104.00-46.56, 104.00-104.00C 720.00,294.52, 673.44,248.00, 616.00,248.00z"  />
<glyph unicode="&#xe066;" d="M 624.00,688.00L 576.00,568.00L 224.00,568.00 L 176.00,688.00C 145.20,688.00, 120.00,662.80, 120.00,632.00l0.00-608.00 C 120.00-6.80, 145.20-32.00, 176.00-32.00l 448.00,0.00 c 30.84,0.00, 56.00,25.20, 56.00,56.00L 680.00,632.00 
	C 680.00,662.80, 654.80,688.00, 624.00,688.00z M 544.00,608.00l 36.00,80.00l-87.20,0.00 L 464.00,768.00L 336.00,768.00 L 307.20,688.00L 220.00,688.00 l 36.00-80.00L 544.00,608.00 z"  />
<glyph unicode="&#xe067;" d="M 160.00,88.00c0.00-44.16, 35.84-80.00, 80.00-80.00c 44.20,0.00, 80.00,35.84, 80.00,80.00s-35.80,80.00-80.00,80.00C 195.84,168.00, 160.00,132.16, 160.00,88.00z M 560.00,88.00c0.00-44.16, 35.84-80.00, 80.00-80.00
	c 44.20,0.00, 80.00,35.84, 80.00,80.00s-35.80,80.00-80.00,80.00C 595.84,168.00, 560.00,132.16, 560.00,88.00z M 301.88,277.12L 744.64,403.60C 753.08,406.04, 760.00,415.20, 760.00,424.00L 760.00,644.00 L 196.00,644.00 L 196.00,712.00 
	C 196.00,720.80, 188.84,728.00, 180.00,728.00L 56.00,728.00 C 47.20,728.00, 40.00,720.80, 40.00,712.00L 40.00,648.00 l 77.72,0.00 l 78.72-362.28L 204.04,248.00l0.00-60.00 c0.00-8.80, 7.20-16.00, 15.96-16.00L 240.00,172.00 l 400.00,0.00 l 104.04,0.00 
	C 752.80,172.00, 760.00,179.20, 760.00,188.00L 760.00,248.00 L 310.08,248.00 C 264.12,248.00, 263.16,266.00, 301.88,277.12z"  />
<glyph unicode="&#xe068;" d="M 736.00,688.00L 64.00,688.00 C 50.76,688.00, 40.00,677.24, 40.00,664.00L 40.00,568.00 l 720.00,0.00 L 760.00,664.00 C 760.00,677.24, 749.24,688.00, 736.00,688.00z M 80.00,104.00C 80.00,73.20, 105.20,48.00, 136.00,48.00l 528.00,0.00 
	c 30.84,0.00, 56.00,25.20, 56.00,56.00L 720.00,528.00 L 80.00,528.00 L 80.00,104.00 z M 280.00,448.00l 240.00,0.00 l0.00-80.00 L 280.00,368.00 L 280.00,448.00 z"  />
<glyph unicode="&#xe069;" d="M 196.24,306.32l 142.08-142.08l 260.68,260.68l-142.12,142.08L 196.24,306.32z M 764.20,501.44l-60.48,60.44
	c-11.56-6.24-24.68-9.84-38.76-9.84c-44.68,0.00-80.92,36.24-80.92,80.96c0.00,14.04, 3.52,27.24, 9.84,38.76l-60.48,60.44
	c-15.80,15.76-41.48,15.76-57.28,0.00L 35.80,291.84c-15.76-15.76-15.76-41.52,0.00-57.28l 60.48-60.48c 11.52,6.28, 24.72,9.84, 38.72,9.84
	c 44.72,0.00, 80.96-36.20, 80.96-80.92c0.00-14.04-3.56-27.24-9.88-38.76l 60.44-60.48c 15.76-15.76, 41.52-15.76, 57.28,0.00l 440.40,440.40
	C 779.92,459.92, 779.92,485.68, 764.20,501.44z M 338.32,99.24l-207.04,207.08l 325.68,325.64L 664.00,424.92L 338.32,99.24z"  />
<glyph unicode="&#xe06a;" d="M 80.08,656.04l0.00-94.72 c 283.44,0.00, 513.20-229.80, 513.20-513.24l 94.76,0.00 C 688.04,383.84, 415.84,656.04, 80.08,656.04z M 80.08,466.56l0.00-94.76 
		c 178.80,0.00, 323.76-144.92, 323.76-323.72l 94.68,0.00 C 498.52,279.16, 311.20,466.56, 80.08,466.56z M 170.88,229.68c-50.12,0.00-90.80-40.68-90.80-90.84
		s 40.68-90.80, 90.80-90.80c 50.16,0.00, 90.84,40.64, 90.84,90.80S 221.04,229.68, 170.88,229.68z"  />
<glyph unicode="&#xe06b;" d="M 400.00,208.00c-43.76,0.00-79.16-35.84-79.16-80.00S 356.24,48.00, 400.00,48.00c 43.72,0.00, 79.16,35.84, 79.16,80.00S 443.72,208.00, 400.00,208.00z M 232.00,297.68l 56.00-56.56
		c 61.84,62.48, 162.12,62.48, 224.00,0.00l 56.00,56.56C 475.20,391.44, 324.76,391.44, 232.00,297.68z M 120.00,410.84l 55.96-56.56
		c 123.72,124.96, 324.28,124.96, 448.00,0.00L 680.00,410.84C 525.36,567.04, 274.64,567.04, 120.00,410.84z M 8.00,523.96L 64.00,467.40c 185.60,187.44, 486.44,187.44, 672.00,0.00
		l 56.00,56.56C 575.52,742.68, 224.48,742.68, 8.00,523.96z"  />
<glyph unicode="&#xe06c;" d="M 331.80,88.00c-17.40,0.00-33.88,8.12-44.44,22.12L 144.40,298.84c-18.60,24.56-13.76,59.52, 10.80,78.12
			c 24.60,18.64, 59.52,13.76, 78.12-10.80l 94.04-124.16l 236.48,379.64c 16.28,26.12, 50.68,34.12, 76.84,17.84
			c 26.12-16.24, 34.12-50.68, 17.80-76.80L 379.16,114.28c-9.72-15.64-26.48-25.44-44.84-26.24C 333.48,88.00, 332.64,88.00, 331.80,88.00z"  />
<glyph unicode="&#xe06d;" d="M 680.00,728.00L 320.00,728.00 C 276.00,728.00, 240.80,692.00, 240.80,648.00l0.00-120.00 L 320.00,528.00 L 320.00,648.00 l 360.00,0.00 l0.00-560.00 L 320.00,88.00 l0.00,80.00 L 240.80,168.00 l0.00-80.00 c0.00-44.00, 35.20-80.00, 79.20-80.00l 360.00,0.00 c 44.00,0.00, 80.00,36.00, 80.00,80.00L 760.00,648.00 C 760.00,692.00, 724.00,728.00, 680.00,728.00z
	 M 400.00,192.00l 160.00,156.00l-160.00,156.00L 400.00,408.00 L 40.00,408.00 l0.00-120.00 l 360.00,0.00 L 400.00,192.00 z"  />
<glyph unicode="&#xe06e;" d="M 440.84,88.00L 119.20,88.00 L 119.20,648.00 l 321.60,0.00 l0.00-120.00 L 520.00,528.00 L 520.00,648.00 c0.00,44.00-35.96,80.00-80.00,80.00L 120.00,728.00 C 76.00,728.00, 40.00,692.00, 40.00,648.00l0.00-560.00 c0.00-44.00, 36.00-80.00, 80.00-80.00l 320.00,0.00 c 44.04,0.00, 80.00,36.00, 80.00,80.00l0.00,80.00 l-79.16,0.00 L 440.84,88.00 z
	 M 760.00,348.00l-159.16,156.00L 600.84,408.00 l-360.00,0.00 l0.00-120.00 l 360.00,0.00 l0.00-96.00 L 760.00,348.00z"  />
<glyph unicode="&#xe06f;" d="M 632.00,448.00L 560.00,448.00 L 560.00,544.00 C 560.00,659.88, 506.60,728.00, 400.00,728.00C 293.36,728.00, 240.00,659.88, 240.00,544.00L 240.00,528.00 l 80.00,0.00 L 320.00,560.00 C 320.00,617.80, 351.88,648.00, 400.00,648.00c 48.08,0.00, 80.00-30.20, 80.00-88.00L 480.00,448.00 L 160.00,448.00 
		C 137.88,448.00, 120.00,422.12, 120.00,400.00L 120.00,88.00 c0.00-22.00, 17.16-45.52, 38.08-52.28l 47.84-15.48C 226.88,13.52, 262.00,8.00, 284.00,8.00l 232.00,0.00 
		c 22.04,0.00, 57.16,5.52, 78.08,12.28l 47.84,15.48C 662.84,42.48, 680.00,66.00, 680.00,88.00L 680.00,400.00 C 680.00,422.12, 654.12,448.00, 632.00,448.00z"  />
<glyph unicode="&#xe070;" d="M 632.04,447.92L 560.00,447.92 l0.00,56.00 c0.00,115.88-53.36,184.00-160.00,184.00c-106.60,0.00-160.00-68.12-160.00-184.00l0.00-56.00 L 160.00,447.92 c-22.08,0.00-40.00-25.88-40.00-48.00l0.00-312.00 
		c0.00-22.00, 17.16-45.56, 38.08-52.28l 47.84-15.48c 20.92-6.76, 56.04-12.28, 78.08-12.28l 232.00,0.00 c 22.00,0.00, 57.16,5.52, 78.08,12.28l 47.84,15.48
		C 662.88,42.36, 680.00,65.92, 680.00,87.92l0.00,312.00 C 680.00,422.04, 654.12,447.92, 632.04,447.92z M 320.00,519.92c0.00,57.80, 31.92,88.00, 80.00,88.00
		c 48.12,0.00, 80.00-30.20, 80.00-88.00l0.00-72.00 L 320.00,447.92 L 320.00,519.92 z"  />
<glyph unicode="&#xe071;" d="M 779.52,672.52l-185.16-301.64c-6.88-11.16-20.32-13.00-29.92-4.04l-89.52,83.84c-9.60,8.96-23.36,7.36-30.64-3.60
	l-125.72-189.60c-7.24-10.92-21.12-12.64-30.84-3.84L 229.20,307.08c-9.72,8.84-24.36,7.68-32.56-2.52l-184.36-229.92
	C 4.04,64.36, 8.08,56.00, 21.16,56.00l 770.84,0.00 L 792.00,669.00 C 792.04,682.16, 786.40,683.76, 779.52,672.52z"  />
<glyph unicode="&#xe072;" d="M 680.00,728.00l-88.00,0.00 C 569.92,728.00, 560.00,710.08, 560.00,688.00l0.00-680.00 l 160.00,0.00 L 720.00,688.00 C 720.00,710.08, 702.12,728.00, 680.00,728.00z M 440.00,488.00L 352.00,488.00 C 329.92,488.00, 320.00,470.08, 320.00,448.00l0.00-440.00 l 160.00,0.00 L 480.00,448.00 
	C 480.00,470.08, 462.12,488.00, 440.00,488.00z M 200.00,248.00L 112.00,248.00 C 89.92,248.00, 80.00,230.12, 80.00,208.00l0.00-200.00 l 160.00,0.00 l0.00,200.00 C 240.00,230.12, 222.08,248.00, 200.00,248.00z"  />
<glyph unicode="&#xe073;" d="M 358.64,680.08C 204.48,661.76, 82.32,539.56, 64.00,385.44l 294.64,0.00 L 358.64,680.08 z M 442.92,679.48l0.00-338.20 c0.00-22.16-17.96-40.12-40.16-40.12L 64.56,301.16 
	c 21.64-165.40, 162.92-293.12, 334.16-293.12c 186.24,0.00, 337.28,150.96, 337.28,337.28C 736.00,516.56, 608.28,657.84, 442.92,679.48z"  />
<glyph unicode="&#xe074;" d="M 27.60,314.72l 54.52-13.52l 41.04,64.48L 45.16,385.00c-19.52,4.88-39.24-6.96-44.08-26.40
	C-3.76,339.24, 8.12,319.56, 27.60,314.72z M 739.24,304.32l-178.52-160.72l-209.92,162.44c-4.00,3.12-8.60,5.32-13.52,6.56
	l-27.96,6.88l-41.04-64.44l 43.96-10.84l 227.92-176.32c 6.60-5.16, 14.44-7.64, 22.32-7.64c 8.76,0.00, 17.52,3.12, 24.40,9.36
	l 201.08,181.00c 14.92,13.44, 16.04,36.32, 2.60,51.16C 777.16,316.60, 754.16,317.76, 739.24,304.32z M 347.36,480.76l 195.48-125.16
	c 16.48-10.52, 38.40-6.16, 49.56,9.88l 201.12,289.68c 11.40,16.48, 7.28,39.00-9.24,50.40s-39.16,7.24-50.60-9.20l-181.12-260.88
	L 355.88,561.40C 347.76,566.60, 337.88,568.36, 328.40,566.28S 310.72,558.48, 305.56,550.32L 5.68,79.56c-10.80-16.88-5.76-39.20, 11.20-49.92
	C 22.92,25.80, 29.68,24.00, 36.36,24.00c 12.04,0.00, 23.80,5.92, 30.72,16.80L 347.36,480.76z"  />
<glyph unicode="&#xe075;" d="M 720.00,608.00L 360.00,608.00 l0.00-200.00 l 400.00,0.00 L 760.00,568.00 C 760.00,590.08, 742.12,608.00, 720.00,608.00z M 40.00,168.00c0.00-22.12, 9.92-40.00, 32.00-40.00L 280.00,128.00 l0.00,200.00 L 40.00,328.00 L 40.00,168.00 z M 360.00,128.00l 360.00,0.00 c 22.12,0.00, 40.00,17.88, 40.00,40.00l0.00,160.00 L 360.00,328.00 L 360.00,128.00 z
		 M 40.00,568.00l0.00-160.00 l 240.00,0.00 L 280.00,608.00 L 72.00,608.00 C 49.92,608.00, 40.00,590.08, 40.00,568.00z" />
<glyph unicode="&#xe076;" d="M 158.20,764.28c-0.60,4.96-8.80,4.96-9.36,0.00C 128.40,599.68, 24.00,565.76, 24.00,451.36c0.00-70.68, 59.28-127.96, 129.52-127.96
	s 129.52,57.28, 129.52,127.96C 283.04,565.76, 178.64,599.68, 158.20,764.28z M 651.16,764.28c-0.64,4.96-8.76,4.96-9.36,0.00
	c-20.44-164.60-124.84-198.52-124.84-312.92c0.00-70.68, 59.28-127.96, 129.52-127.96S 776.00,380.68, 776.00,451.36C 776.00,565.76, 671.60,599.68, 651.16,764.28
	z M 395.32,408.88C 374.88,244.28, 270.48,210.40, 270.48,96.00c0.00-70.72, 59.28-128.00, 129.52-128.00s 129.52,57.32, 129.52,128.00
	c0.00,114.36-104.40,148.28-124.84,312.88C 404.08,413.88, 395.92,413.88, 395.32,408.88z"  />
<glyph unicode="&#xe077;" d="M 504.04,373.32L 504.04,728.00 c0.00,22.08-17.92,40.00-40.00,40.00L 328.00,768.00 C 305.88,768.00, 296.00,750.08, 296.00,728.00l0.00-354.68 C 229.24,336.56, 184.00,265.56, 184.00,184.00
	c0.00-119.28, 96.72-216.00, 216.00-216.00s 216.00,96.72, 216.00,216.00C 616.00,265.56, 570.76,336.56, 504.04,373.32z M 400.00,48.00c-75.12,0.00-136.00,60.88-136.00,136.00
	c0.00,62.16, 41.76,114.40, 98.72,130.68L 362.72,608.00 l 80.00,0.00 l0.00-294.92 c 54.16-17.92, 93.32-68.92, 93.32-129.08C 536.00,108.88, 475.12,48.00, 400.00,48.00z"  />
<glyph unicode="&#xe078;" d="M 573.96,241.92L 463.64,368.00l 110.32,126.08c 18.76,18.76, 18.76,49.16,0.00,67.88c-18.76,18.72-49.16,18.72-67.88,0.00L 400.00,440.72
		l-106.04,121.20c-18.76,18.76-49.16,18.76-67.88,0.00c-18.72-18.76-18.72-49.16,0.00-67.88L 336.36,368.00l-110.32-126.08
		c-18.72-18.76-18.72-49.08,0.00-67.80c 18.76-18.76, 49.16-18.76, 67.88,0.00L 400.00,295.28l 106.04-121.16c 18.76-18.76, 49.16-18.76, 67.88,0.00
		S 592.68,223.16, 573.96,241.92z"  />
<glyph unicode="&#xe079;" d="M 640.00,688.00L 160.00,688.00 C 116.00,688.00, 80.00,652.00, 80.00,608.00l0.00-480.00 c0.00-44.00, 36.00-80.00, 80.00-80.00l 480.00,0.00 c 44.00,0.00, 80.00,36.00, 80.00,80.00L 720.00,608.00 C 720.00,652.00, 684.00,688.00, 640.00,688.00z M 600.00,328.00L 200.00,328.00 L 200.00,408.00 l 400.00,0.00 L 600.00,328.00 z"  />
<glyph unicode="&#xe07a;" d="M 640.00,688.00L 160.00,688.00 C 116.00,688.00, 80.00,652.00, 80.00,608.00l0.00-480.00 c0.00-44.00, 36.00-80.00, 80.00-80.00l 480.00,0.00 c 44.00,0.00, 80.00,36.00, 80.00,80.00L 720.00,608.00 C 720.00,652.00, 684.00,688.00, 640.00,688.00z M 600.00,328.00l-160.00,0.00 l0.00-160.00 L 360.00,168.00 l0.00,160.00 L 200.00,328.00 L 200.00,408.00 l 160.00,0.00 L 360.00,568.00 l 80.00,0.00 l0.00-160.00 l 160.00,0.00 L 600.00,328.00 z"  />
<glyph unicode="&#xe07b;" d="M 400.00,704.00c-185.60,0.00-336.00-150.48-336.00-336.00c0.00-185.60, 150.44-336.00, 336.00-336.00c 185.56,0.00, 336.00,150.44, 336.00,336.00C 736.00,553.56, 585.56,704.00, 400.00,704.00z
		 M 602.00,408.88l0.00-81.80 L 198.00,327.08 L 198.00,408.88 L 602.00,408.88 z"  />
<glyph unicode="&#xe07c;" d="M 640.00,688.00L 160.00,688.00 C 116.00,688.00, 80.00,652.00, 80.00,608.00l0.00-480.00 c0.00-44.00, 36.00-80.00, 80.00-80.00l 480.00,0.00 c 44.00,0.00, 80.00,36.00, 80.00,80.00L 720.00,608.00 C 720.00,652.00, 684.00,688.00, 640.00,688.00z M 522.44,176.44L 400.00,298.84
	l-122.44-122.44l-69.12,69.16L 330.84,368.00l-122.40,122.40l 69.12,69.16L 400.00,437.16l 122.40,122.40l 69.16-69.12L 469.16,368.00l 122.44-122.44L 522.44,176.44z"  />
<glyph unicode="&#xe07d;" d="M 400.00,704.00c-185.60,0.00-336.00-150.48-336.00-336.00c0.00-185.60, 150.44-336.00, 336.00-336.00c 185.56,0.00, 336.00,150.44, 336.00,336.00C 736.00,553.56, 585.56,704.00, 400.00,704.00z
		 M 440.88,327.12l0.00-161.08 L 359.12,166.04 l0.00,161.08 L 198.00,327.12 L 198.00,408.88 l 161.08,0.00 L 359.08,570.00 l 81.80,0.00 l0.00-161.08 l 161.08,0.00 l0.00-81.80 L 440.88,327.12 z"  />
<glyph unicode="&#xe07e;" d="M 400.00,704.00c-185.60,0.00-336.00-150.48-336.00-336.00c0.00-185.60, 150.44-336.00, 336.00-336.00c 185.56,0.00, 336.00,150.44, 336.00,336.00C 736.00,553.56, 585.56,704.00, 400.00,704.00z
		 M 469.16,368.00l 122.44-122.44l-69.16-69.16L 400.00,298.84l-122.44-122.44l-69.12,69.16L 330.84,368.00l-122.40,122.40l 69.12,69.16L 400.00,437.16l 122.44,122.40
		l 69.16-69.12L 469.16,368.00z"  />
<glyph unicode="&#xe07f;" d="M 607.96,408.00L 192.00,408.00 c-22.12,0.00-24.00-17.92-24.00-40.00s 1.88-40.00, 24.00-40.00l 415.96,0.00 c 22.12,0.00, 24.04,17.92, 24.04,40.00S 630.08,408.00, 607.96,408.00z"  />
<glyph unicode="&#xe080;" d="M 607.96,408.00l-168.00,0.00 L 439.96,576.00 c0.00,22.08-17.88,24.00-40.00,24.00c-22.08,0.00-40.00-1.88-40.00-24.00L 359.96,408.00 L 192.00,408.00 c-22.12,0.00-24.00-17.92-24.00-40.00s 1.88-40.00, 24.00-40.00l 167.96,0.00 
		l0.00-168.00 c0.00-22.08, 17.92-24.00, 40.00-24.00c 22.12,0.00, 40.00,1.92, 40.00,24.00L 439.96,328.00 l 168.00,0.00 c 22.12,0.00, 24.04,17.92, 24.04,40.00S 630.08,408.00, 607.96,408.00z"  />
<glyph unicode="&#xe081;" d="M 720.00,648.00L 337.84,648.00 c-17.60,0.00-42.84-9.48-56.08-21.08L 9.92,389.08c-13.24-11.60-13.24-30.56,0.00-42.16l 271.84-237.88
	C 295.00,97.48, 320.24,88.00, 337.84,88.00L 720.00,88.00 c 44.04,0.00, 80.00,36.00, 80.00,80.00L 800.00,568.00 C 800.00,612.00, 764.04,648.00, 720.00,648.00z M 607.64,208.00l-102.28,102.28L 403.16,208.00l-57.76,57.72
	L 447.64,368.00L 345.40,470.24L 403.16,528.00l 102.24-102.24L 607.64,528.00l 57.72-57.76L 563.16,368.00l 102.24-102.24L 607.64,208.00z"  />
<glyph unicode="&#xe082;" d="M 400.00,752.00c-212.08,0.00-384.00-171.92-384.00-384.00s 171.92-384.00, 384.00-384.00c 212.12,0.00, 384.00,171.92, 384.00,384.00S 612.12,752.00, 400.00,752.00z M 606.64,574.56
		l-0.08,0.08C 606.56,574.60, 606.64,574.56, 606.64,574.56z M 107.84,368.00c0.00,161.36, 130.80,292.16, 292.16,292.16c 70.16,0.00, 134.56-24.72, 184.96-65.92
		L 173.80,183.12C 132.56,233.48, 107.84,297.84, 107.84,368.00z M 193.36,161.44l 0.08-0.08C 193.40,161.40, 193.40,161.40, 193.36,161.44z M 400.00,75.80
		c-70.16,0.00-134.52,24.76-184.88,65.96L 626.16,552.88c 41.24-50.36, 66.00-114.72, 66.00-184.88C 692.20,206.64, 561.32,75.80, 400.00,75.80z"  />
<glyph unicode="&#xe083;" d="M 497.28,768.00c 53.60,0.00, 80.40-36.56, 80.40-78.32c0.00-52.16-46.56-100.44-107.12-100.44c-50.80,0.00-80.40,30.00-79.00,79.56
		C 391.56,710.60, 426.76,768.00, 497.28,768.00z M 332.36-32.00c-42.32,0.00-73.32,26.08-43.72,140.92l 48.56,203.64c 8.44,32.60, 9.84,45.68,0.00,45.68
		c-12.72,0.00-67.60-22.52-100.08-44.72L 216.00,348.76c 102.92,87.44, 221.28,138.68, 272.04,138.68c 42.28,0.00, 49.28-50.88, 28.20-129.16l-55.64-214.08
		c-9.84-37.84-5.64-50.88, 4.20-50.88c 12.72,0.00, 54.28,15.72, 95.16,48.32l 24.00-32.60C 483.92,7.20, 374.64-32.00, 332.36-32.00z"  />
<glyph unicode="&#xe084;" d="M 680.00,520.00l-152.00,0.00 L 528.00,408.00 l 120.00,0.00 l0.00-168.00 L 152.00,240.00 L 152.00,408.00 L 320.00,408.00 l0.00-88.00 l 160.00,144.00L 320.00,608.00l0.00-88.00 L 120.00,520.00 c-44.16,0.00-80.00-35.80-80.00-80.00L 40.00,208.00 c0.00-44.16, 35.84-80.00, 80.00-80.00l 560.00,0.00 c 44.20,0.00, 80.00,35.84, 80.00,80.00L 760.00,440.00 
	C 760.00,484.20, 724.20,520.00, 680.00,520.00z"  />
<glyph unicode="&#xe085;" d="M 199.20,240.00L 199.20,448.80 L 280.00,448.80 L 140.00,608.00L0.00,448.80l 80.80,0.00 L 80.80,208.00 c0.00-44.16, 35.80-80.00, 80.00-80.00L 520.00,128.00 l-102.48,112.00L 199.20,240.00 z M 719.16,287.20L 719.16,528.00 c0.00,44.16-35.84,80.00-80.00,80.00L 280.00,608.00 
		l 102.44-112.00l 218.36,0.00 l0.00-208.80 L 520.00,287.20 L 660.00,128.00l 140.00,159.20L 719.16,287.20 z"  />
<glyph unicode="&#xe086;" d="M 160.08,248.00l 324.04,0.00 l0.00-120.00 l 192.00,176.00l-192.00,175.96l0.00-120.00 l-292.00,0.00 L 192.12,608.00 L 80.08,608.00 l0.00-280.00 C 80.08,283.84, 115.88,248.00, 160.08,248.00z"  />
<glyph unicode="&#xe087;" d="M 640.08,520.00l-432.00,0.00 L 208.08,608.00 l-168.00-144.00l 168.00-144.00L 208.08,408.00 l 400.00,0.00 l0.00-168.00 l-520.00,0.00 L 88.08,128.00 l 552.00,0.00 c 44.16,0.00, 80.00,35.84, 80.00,80.00L 720.08,440.00 C 720.08,484.20, 684.20,520.00, 640.08,520.00z
			"  />
<glyph unicode="&#xe088;" d="M 603.72,500.24L 632.00,500.24 l0.00-80.52 l 168.00,144.00l-168.00,144.00l0.00-95.48 l-28.28,0.00 c-147.72,0.00-231.04-109.48-304.56-206.08
	c-66.12-86.88-123.20-161.92-215.44-161.92L0.00,244.24 l0.00-112.04 l 83.72,0.00 c 147.76,0.00, 231.04,109.52, 304.60,206.12C 454.40,425.24, 511.48,500.24, 603.72,500.24z
	 M 216.44,429.68c 6.28,8.16, 12.64,16.48, 19.08,24.92c 15.64,20.56, 32.16,42.24, 50.04,63.84C 232.72,567.80, 168.96,604.24, 83.72,604.24L0.00,604.24 l0.00-112.00 
	l 83.72,0.00 C 136.80,492.24, 178.24,467.32, 216.44,429.68z M 632.00,236.28l-28.28,0.00 c-56.28,0.00-99.44,27.96-139.60,69.52
	c-4.04-5.24-8.04-10.56-12.12-15.92c-17.64-23.12-36.64-48.04-57.56-72.64c 54.28-52.96, 120.04-92.96, 209.28-92.96L 632.00,124.28 l0.00-96.00 l 168.00,144.00
	l-168.00,144.08L 632.00,236.28 z"  />
<glyph unicode="&#xe089;" d="M 449.04,696.00c-177.80,0.00-322.40-142.48-326.76-319.80L 24.00,376.20 l 147.16-164.00l 147.12,164.00L 204.04,376.20 C 208.36,508.24, 316.36,614.00, 449.04,614.00
			c 135.48,0.00, 245.24-110.12, 245.24-246.00s-109.76-246.00-245.24-246.00c-54.28,0.00-104.44,17.76-145.08,47.72l-56.24-60.16
			C 303.20,66.00, 373.08,40.00, 449.04,40.00c 180.60,0.00, 327.00,146.84, 327.00,328.00C 776.00,549.16, 629.60,696.00, 449.04,696.00z"  />
<glyph unicode="&#xe08a;" d="M 350.92,696.00c 177.84,0.00, 322.44-142.48, 326.76-319.80L 776.00,376.20 l-147.16-164.04l-147.16,164.04l 114.24,0.00 C 591.64,508.24, 483.64,614.00, 350.92,614.00
			c-135.44,0.00-245.20-110.12-245.20-246.00s 109.76-246.00, 245.20-246.00c 54.32,0.00, 104.48,17.76, 145.12,47.72l 56.20-60.16
			C 496.76,66.00, 426.88,40.00, 350.92,40.00C 170.36,40.00, 24.00,186.84, 24.00,368.00C 24.00,549.16, 170.36,696.00, 350.92,696.00z"  />
<glyph unicode="&#xe08b;" d="M 220.64,199.04c-90.48,97.32-88.88,249.80, 5.08,344.44c 38.48,38.72, 86.56,61.84, 136.56,69.44L 359.52,696.00
	C 289.36,687.48, 221.44,656.16, 167.64,602.00C 41.68,475.12, 40.20,270.40, 162.72,140.72l-69.64-70.12l 220.40-12.04l-0.60,233.36L 220.64,199.04z
	 M 486.48,677.40l 0.60-233.36l 92.28,92.92c 90.48-97.32, 88.92-249.80-5.08-344.44c-38.48-38.76-86.56-61.84-136.60-69.44l 2.76-83.04
	c 70.20,8.52, 138.12,39.84, 191.92,94.04c 125.92,126.84, 127.48,331.60, 4.88,461.24l 69.64,70.12L 486.48,677.40z"  />
<glyph unicode="&#xe08c;" d="M 780.48,48.72L 424.16,673.96C 419.24,682.60, 410.00,687.92, 400.00,687.92c-10.00,0.00-19.20-5.32-24.16-13.96L 19.56,48.72
		c-4.84-8.48-4.76-18.84, 0.20-27.24s 14.08-13.56, 23.92-13.56l 712.60,0.00 c 9.76,0.00, 18.92,5.16, 23.92,13.56
		C 785.16,29.88, 785.24,40.24, 780.48,48.72z M 444.00,87.92L 356.00,87.92 l0.00,80.00 l 88.00,0.00 L 444.00,87.92 z M 444.00,227.92L 356.00,227.92 l0.00,240.00 l 88.00,0.00 L 444.00,227.92 z"  />
<glyph unicode="&#xe08d;" d="M 395.12,735.96c-203.24-2.72-365.80-169.68-363.08-372.92c 2.72-203.12, 169.68-365.72, 372.92-363.00
	c 203.16,2.72, 365.76,169.68, 363.00,372.92C 765.28,576.12, 598.32,738.68, 395.12,735.96z M 394.04,144.00L 392.00,144.00 c-31.28,0.92-53.36,24.00-52.48,54.84
	c 0.88,30.28, 23.48,52.32, 53.76,52.32l 1.84-0.04c 32.16-0.96, 54.00-23.80, 53.04-55.52C 447.28,165.24, 425.00,144.00, 394.04,144.00z
	 M 525.68,405.28c-7.40-10.44-23.56-23.44-43.96-39.32l-22.48-15.52c-12.32-9.60-19.76-18.60-22.52-27.44
	c-2.24-7.04-3.28-8.84-3.48-23.04l-0.04-3.64L 347.48,296.32 l 0.24,7.28c 1.04,29.84, 1.80,47.36, 14.16,61.88
	c 19.40,22.76, 62.20,50.32, 64.00,51.48c 6.12,4.64, 11.28,9.88, 15.16,15.48c 9.00,12.40, 12.96,22.20, 12.96,31.76
	c0.00,13.32-3.96,25.64-11.76,36.60c-7.52,10.60-21.80,15.96-42.44,15.96c-20.48,0.00-34.48-6.52-42.88-19.84
	C 348.24,483.20, 343.92,468.84, 343.92,454.12l0.00-3.68 l-88.40,0.00 l 0.16,3.84c 2.28,54.16, 21.60,93.12, 57.44,115.88C 335.60,584.68, 363.60,592.00, 396.24,592.00
	c 42.76,0.00, 78.92-10.40, 107.32-30.88c 28.80-20.76, 43.40-51.88, 43.40-92.44C 546.96,445.96, 539.80,424.64, 525.68,405.28z"  />
<glyph unicode="&#xe08e;" d="M 563.60,678.64C 517.96,711.56, 460.72,728.00, 391.76,728.00C 339.28,728.00, 295.04,716.40, 259.08,693.28C 202.00,657.04, 171.68,595.52, 168.00,508.72l 132.24,0.00 
		c0.00,25.28, 7.36,49.64, 22.12,73.08s 39.80,35.16, 75.12,35.16c 35.88,0.00, 60.64-9.52, 74.16-28.52c 13.56-19.08, 20.32-40.16, 20.32-63.28
		c0.00-20.12-10.08-38.52-22.24-55.28c-6.68-9.76-15.52-18.72-26.44-26.96c0.00,0.00-71.72-46.00-103.24-82.96
		c-18.28-21.44-19.92-53.52-21.52-99.56c-0.12-3.28, 1.12-10.04, 12.60-10.04s 92.68,0.00, 102.88,0.00s 12.32,7.56, 12.48,10.88
		c 0.72,16.76, 2.60,25.32, 5.68,35.00c 5.80,18.28, 21.48,34.24, 39.16,47.96l 36.40,25.12c 32.84,25.60, 59.08,46.60, 70.64,63.08
		C 618.12,459.52, 632.00,492.88, 632.00,532.44C 632.00,597.04, 609.16,645.76, 563.60,678.64z M 389.64,171.04c-45.60,1.36-83.20-30.16-84.64-79.60
		c-1.44-49.40, 34.32-82.04, 79.92-83.40c 47.60-1.40, 84.20,29.12, 85.64,78.52C 471.96,136.00, 437.24,169.64, 389.64,171.04z"  />
<glyph unicode="&#xe08f;" d="M 395.08,735.96c-203.20-2.72-365.76-169.68-363.04-372.92c 2.72-203.12, 169.68-365.72, 372.88-363.00
		c 203.20,2.72, 365.76,169.68, 363.04,372.92C 765.28,576.12, 598.28,738.68, 395.08,735.96z M 435.88,613.32c 37.40,0.00, 48.44-21.68, 48.44-46.52
		c0.00-31.00-24.84-59.68-67.20-59.68c-35.44,0.00-52.28,17.84-51.28,47.28C 365.84,579.24, 386.64,613.32, 435.88,613.32z M 339.96,138.00
		c-25.56,0.00-44.28,15.52-26.40,83.76l 29.32,120.96c 5.08,19.40, 5.92,27.16,0.00,27.16c-7.64,0.00-40.84-13.40-60.48-26.60l-12.76,20.92
		c 62.20,51.92, 133.72,82.40, 164.36,82.40c 25.56,0.00, 29.80-30.24, 17.04-76.76l-33.60-127.20c-5.92-22.48-3.36-30.24, 2.56-30.24
		c 7.64,0.00, 32.80,9.28, 57.52,28.72l 14.44-19.40C 431.52,161.28, 365.56,138.00, 339.96,138.00z"  />
</font>
</defs>
</svg>
